<svg xmlns="http://www.w3.org/2000/svg" xmlns:xlink="http://www.w3.org/1999/xlink" version="1.1" x="0px" y="0px" xml:space="preserve"  viewBox="0 0 32 32">
    <path  fill="#d75f3f" d="M32 0H0V32H32V0ZM16.9133 25H13.6383V16.0044H12V13.1936H13.6383V10.9374H13.6443C13.7014 8.9864 14.3604 7.129 17.5674 7.0126V7H19.6171V9.8108H17.9447C17.3379 9.8108 16.9133 10.5002 16.9133 11.1568V13.1936H19.8561L19.3702 16.0044H16.9133V25Z"></path>
    <path  d="M13.6383 25H16.9133V16.0044H19.3702L19.8561 13.1936H16.9133V11.1568C16.9133 10.5002 17.3379 9.8108 17.9447 9.8108H19.6171V7H17.5674V7.0126C14.3604 7.129 13.7014 8.9864 13.6443 10.9374H13.6383V13.1936H12V16.0044H13.6383V25Z" style="color:#ffffff;fill:#ffffff"></path>
</svg>