<svg xmlns="http://www.w3.org/2000/svg" viewBox="0 0 64 64" x="0px" y="0px" style="max-width:100%" height="100%"><title style="" fill="currentColor">Guarantee icon</title><desc style="" fill="currentColor">Guarantee icon for website, application, printing, document, poster design, etc.</desc><metadata style="" fill="currentColor"><!--?xpacket begin="&#65279;" id="W5M0MpCehiHzreSzNTczkc9d"?--><x:xmpmeta xmlns:x="adobe:ns:meta/" x:xmptk="Adobe XMP Core 5.6-c148 79.163820, 2019/02/20-18:54:02        " style="" fill="currentColor"></x:xmpmeta><!--?xpacket end="w"?--></metadata><g style="" fill="currentColor"><g style="" fill="currentColor"><path d="M37,42H27a1,1,0,0,0,0,2H37a1,1,0,0,0,0-2Z" style="" fill="currentColor"></path><path d="M45,44a1,1,0,0,0,0-2H42a1,1,0,0,0,0,2Z" style="" fill="currentColor"></path><circle cx="22" cy="43" r="1" style="" fill="currentColor"></circle><circle cx="18" cy="43" r="1" style="" fill="currentColor"></circle><path d="M59.25,48l2.55-3.4A1,1,0,0,0,61,43H55V39a1,1,0,0,0-1-1H10a1,1,0,0,0-1,1v4H3a1,1,0,0,0,0,2H9v2a1,1,0,0,0,.43.8h0L13.88,51H5l1.8-2.4a1,1,0,1,0-1.6-1.2l-3,4A1,1,0,0,0,3,53H17a1,1,0,0,0,1-1V48H36a1,1,0,0,0,0-2H11V40H53v6H40a1,1,0,0,0,0,2h6v4a1,1,0,0,0,1,1H61a1,1,0,0,0,.8-1.6ZM16,50.06,13.12,48H16ZM50.88,48,48,50.06V48Zm6.32.6L59,51H50.12l4.46-3.19h0A1,1,0,0,0,55,47V45h4l-1.8,2.4A1,1,0,0,0,57.2,48.6Z" style="" fill="currentColor"></path><path d="M36.18,35.92a1.1,1.1,0,0,0,.4.08,1,1,0,0,0,.91-.6A5.88,5.88,0,0,0,38,33a6,6,0,0,0-12,0,5.88,5.88,0,0,0,.51,2.4,1,1,0,0,0,1.31.52,1,1,0,0,0,.52-1.32A3.87,3.87,0,0,1,28,33a4,4,0,0,1,8,0,3.87,3.87,0,0,1-.34,1.6A1,1,0,0,0,36.18,35.92Z" style="" fill="currentColor"></path><path d="M12.37,36a1,1,0,0,0,.71-1.22A32.88,32.88,0,0,1,12,26.43V18.06A23.94,23.94,0,0,0,31.4,9.31l.6-.73.6.73A23.94,23.94,0,0,0,52,18.06v8.37a32.88,32.88,0,0,1-1.08,8.32A1,1,0,0,0,51.63,36a1.15,1.15,0,0,0,.26,0,1,1,0,0,0,1-.75A34.9,34.9,0,0,0,54,26.43V17a1,1,0,0,0-.32-.74,1.07,1.07,0,0,0-.76-.26A21.87,21.87,0,0,1,34.15,8.05L32.77,6.37a1,1,0,0,0-1.54,0L29.85,8.05a21.93,21.93,0,0,1-18.77,8,1.07,1.07,0,0,0-.76.26A1,1,0,0,0,10,17v9.43a34.9,34.9,0,0,0,1.15,8.82A1,1,0,0,0,12.37,36Z" style="" fill="currentColor"></path><path d="M41.76,50.33,32,59.62l-9.74-9.28-.07-.07a1,1,0,0,0-1.39.07,1,1,0,0,0,.06,1.43l10.45,9.95a1,1,0,0,0,1.38,0l10.49-10L42.5,51Z" style="" fill="currentColor"></path><path d="M46,36a1,1,0,0,0,1-1V30a1,1,0,0,0-1-1H43.31c-.14-.4-.31-.79-.48-1.17l1.9-1.9a1,1,0,0,0,0-1.42l-4.24-4.24a1,1,0,0,0-1.42,0l-1.9,1.9c-.38-.17-.77-.34-1.17-.48V19.62a1,1,0,0,0-1-1H29a1,1,0,0,0-1,1v2.07c-.4.14-.79.31-1.17.48l-1.9-1.9a1,1,0,0,0-1.42,0l-4.24,4.24a1,1,0,0,0,0,1.42l1.9,1.9c-.17.38-.34.77-.48,1.17H18a1,1,0,0,0-1,1v5a1,1,0,0,0,2,0V31h2.42a1,1,0,0,0,1-.73,9.63,9.63,0,0,1,.88-2.14,1,1,0,0,0-.16-1.2l-1.72-1.71,2.83-2.83,1.71,1.72a1,1,0,0,0,1.2.16,9.63,9.63,0,0,1,2.14-.88,1,1,0,0,0,.73-1v-1.8h4v1.8a1,1,0,0,0,.73,1,9.63,9.63,0,0,1,2.14.88,1,1,0,0,0,1.2-.16l1.71-1.72,2.83,2.83-1.72,1.71a1,1,0,0,0-.16,1.2,9.63,9.63,0,0,1,.88,2.14,1,1,0,0,0,1,.73H45v4A1,1,0,0,0,46,36Z" style="" fill="currentColor"></path></g></g></svg>