<svg xmlns="http://www.w3.org/2000/svg" data-name="Layer 1" viewBox="0 0 100 100" x="0px" y="0px" style="max-width:100%" height="100%"><title style="" fill="currentColor">Artboard 5</title><path d="M92.56,9.62a1.5,1.5,0,0,0-1.06-.44h0a1.5,1.5,0,0,0-1.06.44L76.51,23.46,71.3,18.22a1.5,1.5,0,0,0-2.12,0l-6.54,6.51a1.5,1.5,0,0,0,0,2.12L75.41,39.69a1.5,1.5,0,0,0,2.12,0L99.06,18.28a1.5,1.5,0,0,0,0-2.12ZM76.48,36.51,65.81,25.79l4.42-4.39,5.21,5.24a1.5,1.5,0,0,0,2.12,0L91.49,12.8l4.39,4.42ZM31.42,90.8h0l34.18-.39H68.5a7.38,7.38,0,0,0,7.37-6.48,7.25,7.25,0,0,0-1-4.46,7.31,7.31,0,0,0,5.38-6.21,7.24,7.24,0,0,0-1-4.46,7.31,7.31,0,0,0,5.38-6.21,7.24,7.24,0,0,0-1-4.42A7.23,7.23,0,0,0,89,51a7.39,7.39,0,0,0-7.45-7h-26l2.9-21.54a1.47,1.47,0,0,0,0-.25,6,6,0,0,0-11.71-1.31l-13,27.67-3.38,1.19a3.36,3.36,0,0,0-2.2,3.21v34.6a3.29,3.29,0,0,0,3.29,3.29ZM31.13,52.9a.37.37,0,0,1,.19-.36l4-1.39a1.5,1.5,0,0,0,.86-.78L49.51,22a1.52,1.52,0,0,0,.1-.3,3,3,0,0,1,5.83.46l-3.11,23.1A1.5,1.5,0,0,0,53.82,47H81.56A4.37,4.37,0,0,1,86,51h0a4.22,4.22,0,0,1-4.21,4.35H80.27a1.5,1.5,0,0,0-.75,2.8,4.18,4.18,0,0,1,2.1,4.09,4.36,4.36,0,0,1-4.39,3.78H75.89a1.5,1.5,0,0,0-.75,2.8A4.19,4.19,0,0,1,77.25,73a4.35,4.35,0,0,1-4.39,3.78H71.52a1.5,1.5,0,0,0-.75,2.8,4.19,4.19,0,0,1,2.11,4.09,4.36,4.36,0,0,1-4.39,3.78H65.63l-34.2.39c-.13,0-.17,0-.21-.08a.29.29,0,0,1-.09-.21ZM4.93,90.83H21.59A4.43,4.43,0,0,0,26,86.4V52.66a4.43,4.43,0,0,0-4.43-4.43H4.93A4.43,4.43,0,0,0,.5,52.66V86.4A4.43,4.43,0,0,0,4.93,90.83ZM3.5,52.66a1.43,1.43,0,0,1,1.43-1.43H21.59A1.43,1.43,0,0,1,23,52.66V86.4a1.43,1.43,0,0,1-1.43,1.43H4.93A1.43,1.43,0,0,1,3.5,86.4ZM13,85.84a4.11,4.11,0,1,0-4.11-4.11A4.11,4.11,0,0,0,13,85.84Zm0-5.22a1.11,1.11,0,1,1-1.11,1.11A1.11,1.11,0,0,1,13,80.62Z" style="" fill="currentColor"></path></svg>