<svg xmlns="http://www.w3.org/2000/svg" xmlns:xlink="http://www.w3.org/1999/xlink" version="1.1" x="0px" y="0px" viewBox="0 0 128 128" style="enable-background:new 0 0 128 128;max-width:100%" xml:space="preserve" height="100%"><g style="" fill="currentColor"><path d="M108,76.5c0-8.7-5.5-16-13.2-18.6c2-1.7,3.2-4.1,3.2-6.9c0-5-4-9-9-9c-5,0-9,4-9,9c0,2.8,1.2,5.2,3.2,6.9   c-2.7,0.9-5.1,2.4-7.1,4.3c-1.8-1.1-3.8-1.9-5.8-2.4c3.5-2.1,5.8-5.9,5.8-10.3c0-6.6-5.4-12-12-12c-6.6,0-12,5.4-12,12   c0,4.3,2.3,8.1,5.8,10.3c-2.1,0.6-4,1.4-5.8,2.4c-2-1.9-4.5-3.4-7.1-4.3c2-1.7,3.2-4.1,3.2-6.9c0-5-4-9-9-9c-5,0-9,4-9,9   c0,2.8,1.2,5.2,3.2,6.9C25.5,60.5,20,67.8,20,76.5V82h19.2c-0.1,1-0.2,2.1-0.2,3.2V92h50v-6.8c0-1.1-0.1-2.1-0.2-3.2H108V76.5z    M89,46.1c2.8,0,5,2.2,5,5s-2.2,5-5,5c-2.8,0-5-2.2-5-5S86.2,46.1,89,46.1z M64,41.6c4.4,0,8,3.6,8,8s-3.6,8-8,8c-4.4,0-8-3.6-8-8   S59.6,41.6,64,41.6z M39,46.1c2.8,0,5,2.2,5,5s-2.2,5-5,5s-5-2.2-5-5S36.2,46.1,39,46.1z M24,78v-1.5C24,68,30.7,61,39,61   c3.6,0,7,1.4,9.6,3.6c-4.1,3.4-7.1,8-8.6,13.4H24z M85,88H43v-2.8C43,73,52.4,63,64,63c11.6,0,21,10,21,22.2V88z M104,78H88   c-1.5-5.4-4.5-10-8.6-13.4C82,62.4,85.4,61,89,61c8.3,0,15,7,15,15.5V78z" style="" fill="currentColor"></path><path d="M127.6,66.8l-6.3-8c-0.4-0.5-1-0.8-1.6-0.8c-0.6,0-1.2,0.3-1.6,0.8l-5.7,8c-0.6,0.9-0.4,2.2,0.5,2.8   c0.4,0.2,0.8,0.4,1.2,0.4c0.6,0,1.2-0.3,1.6-0.8l2.3-3.3C117,94.8,93.1,118,64,118c-26.5,0-48.7-19.3-53.2-44.5l-1.6,2   c-0.4,0.5-1,0.8-1.6,0.8c0,0,0,0-0.1,0c-0.1,0-0.2,0-0.3,0C12.9,102.4,36.2,122,64,122c31.3,0,56.8-24.8,57.9-55.9l2.5,3.1   c0.7,0.9,1.9,1,2.8,0.3C128.1,68.9,128.3,67.6,127.6,66.8z" style="" fill="currentColor"></path><path d="M7.8,70.9l1-1.2c0.2-0.1,0.4-0.3,0.5-0.4l6.3-8c0.7-0.9,0.5-2.1-0.3-2.8c-0.9-0.7-2.1-0.5-2.8,0.3l-2.4,3   C11.2,33,35,10,64,10c26.4,0,48.4,19,53.1,44h0.2l0.8-1.2c0.4-0.5,0.9-0.8,1.6-0.8c0.4,0,0.8,0.1,1.2,0.4C115.4,25.9,92,6,64,6   C32.6,6,7,31,6,62.2l-2.4-3.4c-0.6-0.9-1.9-1.1-2.8-0.5c-0.9,0.6-1.1,1.9-0.5,2.8l5.7,8c0.2,0.3,0.6,0.6,1,0.7L7.8,70.9z" style="" fill="currentColor"></path></g></svg>