<svg xmlns="http://www.w3.org/2000/svg" viewBox="0 0 512 512" x="0px" y="0px" style="max-width:100%" height="100%">
    <title style="" fill="currentColor">house renovation roof outline icon</title>
    <desc style="" fill="currentColor">house renovation roof outline icon illustration</desc>
    <metadata style="" fill="currentColor"> <!--?xpacket begin="&#65279;" id="W5M0MpCehiHzreSzNTczkc9d"?-->
        <x:xmpmeta xmlns:x="adobe:ns:meta/" x:xmptk="Adobe XMP Core 5.6-c145 79.163499, 2018/08/13-16:40:22        " style="" fill="currentColor"></x:xmpmeta> <!--?xpacket end="w"?-->
    </metadata>
    <path d="M60.931,428.147H217.814a5.779,5.779,0,0,0,0-11.557H66.71V290.713a5.779,5.779,0,0,0-11.557,0V422.369A5.779,5.779,0,0,0,60.931,428.147Z" style="" fill="currentColor"></path>
    <path d="M439.74,422.369V267.733a5.778,5.778,0,0,0-11.556,0V416.59h-48.71V340.252a39.037,39.037,0,1,0-78.074,0V416.59H252.57V267.733a5.778,5.778,0,1,0-11.556,0V422.369a5.779,5.779,0,0,0,5.778,5.778h187.17A5.779,5.779,0,0,0,439.74,422.369ZM312.956,416.59V340.252a27.481,27.481,0,1,1,54.962,0V416.59Z" style="" fill="currentColor"></path>
    <path d="M117.185,301.215a5.778,5.778,0,0,0-5.778,5.778v63.692a5.778,5.778,0,0,0,5.778,5.778h63.693a5.778,5.778,0,0,0,5.778-5.778V306.993a5.778,5.778,0,0,0-5.778-5.778ZM175.1,364.907H122.964V312.771H175.1Z" style="" fill="currentColor"></path>
    <path d="M192.512,258.124a5.778,5.778,0,0,0,5.778,5.778h10.834a5.8,5.8,0,0,0,1.138-.115,4.831,4.831,0,0,0,1.735-.678c.117-.067.241-.116.354-.192a5.76,5.76,0,0,0,.875-.728c.008-.008.018-.013.026-.021l7.582-7.739a5.779,5.779,0,0,0-8.255-8.089l-5.884,6.006H198.29A5.778,5.778,0,0,0,192.512,258.124Z" style="" fill="currentColor"></path>
    <path d="M134.042,258.124a5.778,5.778,0,0,0,5.778,5.778h21.926a5.778,5.778,0,0,0,0-11.556H139.82A5.778,5.778,0,0,0,134.042,258.124Z" style="" fill="currentColor"></path>
    <path d="M75.572,258.124A5.778,5.778,0,0,0,81.35,263.9h21.926a5.778,5.778,0,1,0,0-11.556H81.35A5.778,5.778,0,0,0,75.572,258.124Z" style="" fill="currentColor"></path>
    <path d="M238.352,83.853h-21.03a5.779,5.779,0,1,0,0,11.557h21.03a5.779,5.779,0,0,0,0-11.557Z" style="" fill="currentColor"></path>
    <path d="M294.432,83.853H273.4a5.779,5.779,0,0,0,0,11.557h21.03a5.779,5.779,0,1,0,0-11.557Z" style="" fill="currentColor"></path>
    <path d="M182.269,83.853a31.718,31.718,0,0,0-22.58,9.353,5.778,5.778,0,1,0,8.171,8.171,20.245,20.245,0,0,1,14.409-5.967,5.779,5.779,0,0,0,0-11.557Z" style="" fill="currentColor"></path>
    <path d="M137.127,115.77l-13.538,13.538a5.777,5.777,0,1,0,8.17,8.171L145.3,123.941a5.778,5.778,0,0,0-8.171-8.171Z" style="" fill="currentColor"></path>
    <path d="M59.557,209.681l13.537-13.539a5.777,5.777,0,0,0-8.17-8.17L51.387,201.51a5.777,5.777,0,1,0,8.17,8.171Z" style="" fill="currentColor"></path>
    <path d="M101.026,151.871,87.488,165.409a5.777,5.777,0,1,0,8.17,8.171L109.2,160.042a5.778,5.778,0,1,0-8.171-8.171Z" style="" fill="currentColor"></path>
    <path d="M19.516,236.3a5.36,5.36,0,0,0,.054.563,5.7,5.7,0,0,0,.2.717c.037.114.052.231.1.345l.025.063L19.9,238l3.916,10.014a5.738,5.738,0,0,0,.516.991,5.811,5.811,0,0,0,.315,1.134l3.946,10.091A5.78,5.78,0,0,0,33.97,263.9H44.805a5.778,5.778,0,1,0,0-11.556h-6.89l-2.508-6.418a5.913,5.913,0,0,0-.522-1.018,5.868,5.868,0,0,0-.309-1.106l-2.57-6.571,4.989-4.99a5.778,5.778,0,1,0-8.174-8.17l-7.6,7.6-.017.018-.044.043c-.078.078-.132.17-.205.252a5.7,5.7,0,0,0-.494.605c-.1.15-.175.311-.261.469a3.444,3.444,0,0,0-.445,1.047c-.055.177-.12.35-.158.532s-.045.35-.066.526c-.022.2-.053.388-.056.587C19.474,235.935,19.5,236.116,19.516,236.3Z" style="" fill="currentColor"></path>
    <path d="M57.157,241.6H75.936a5.779,5.779,0,0,0,0-11.557H57.157a5.779,5.779,0,1,0,0,11.557Z" style="" fill="currentColor"></path>
    <path d="M188.61,235.819a5.778,5.778,0,0,0-5.778-5.778H164.053a5.779,5.779,0,1,0,0,11.557h18.779A5.779,5.779,0,0,0,188.61,235.819Z" style="" fill="currentColor"></path>
    <path d="M104.826,235.819a5.78,5.78,0,0,0,5.779,5.779h18.779a5.779,5.779,0,0,0,0-11.557H110.605A5.779,5.779,0,0,0,104.826,235.819Z" style="" fill="currentColor"></path>
    <path d="M206.569,223.379a5.778,5.778,0,0,0,8.171,0L228.019,210.1a5.778,5.778,0,0,0-8.171-8.171l-13.279,13.279A5.777,5.777,0,0,0,206.569,223.379Z" style="" fill="currentColor"></path>
    <path d="M265.812,164.135a5.775,5.775,0,0,0-8.17,0l-13.279,13.279a5.778,5.778,0,1,0,8.171,8.171l13.278-13.279A5.775,5.775,0,0,0,265.812,164.135Z" style="" fill="currentColor"></path>
    <path d="M295.435,126.342l-13.278,13.279a5.777,5.777,0,1,0,8.17,8.17l13.279-13.279a5.777,5.777,0,0,0-8.171-8.17Z" style="" fill="currentColor"></path>
    <path d="M344.479,85.622a5.766,5.766,0,0,0-1.977-1.339c-.078-.032-.16-.046-.239-.074a5.611,5.611,0,0,0-.826-.244,5.667,5.667,0,0,0-.792-.08c-.106-.006-.207-.032-.315-.032h-.015a5.771,5.771,0,0,0-1.134.115c-.15.03-.288.087-.433.128a5.834,5.834,0,0,0-.647.2c-.16.067-.3.16-.455.24a5.559,5.559,0,0,0-.541.294,5.936,5.936,0,0,0-.6.488c-.09.08-.191.141-.277.227L334.3,87.479a5.656,5.656,0,0,0-.48.588,5.677,5.677,0,0,0-.589.481L319.95,101.827A5.778,5.778,0,0,0,328.121,110l12.2-12.2,3.582,3.575a5.778,5.778,0,1,0,8.165-8.179Z" style="" fill="currentColor"></path>
    <path d="M456.476,211.378a5.778,5.778,0,0,0,4.083-9.868L447,187.97a5.779,5.779,0,0,0-8.165,8.18l13.561,13.539A5.762,5.762,0,0,0,456.476,211.378Z" style="" fill="currentColor"></path>
    <path d="M374.669,115.762a5.778,5.778,0,0,0-8.165,8.179l13.561,13.54a5.779,5.779,0,0,0,8.165-8.18Z" style="" fill="currentColor"></path>
    <path d="M420.312,175.273a5.778,5.778,0,0,0,4.083-9.868l-13.561-13.538a5.778,5.778,0,1,0-8.165,8.179l13.561,13.538A5.76,5.76,0,0,0,420.312,175.273Z" style="" fill="currentColor"></path>
    <path d="M490.828,231.73l-7.667-7.655a5.779,5.779,0,0,0-8.165,8.18l3.575,3.567L475,239.394a5.259,5.259,0,0,1-1.987,1.988l-3.575,3.574-3.576-3.576a5.779,5.779,0,0,0-8.171,8.174l7.662,7.66a5.777,5.777,0,0,0,8.17,0l7.66-7.66a5.24,5.24,0,0,1,1.988-1.987l7.66-7.66a5.777,5.777,0,0,0,0-8.175Z" style="" fill="currentColor"></path>
    <path d="M438.8,214.315l-16.239-16.24a5.778,5.778,0,1,0-8.171,8.171l16.24,16.24a5.777,5.777,0,1,0,8.17-8.171Z" style="" fill="currentColor"></path>
    <path d="M371.079,154.768a5.777,5.777,0,0,0,0,8.171l16.24,16.24a5.778,5.778,0,0,0,8.171-8.171l-16.24-16.24A5.777,5.777,0,0,0,371.079,154.768Z" style="" fill="currentColor"></path>
    <path d="M340.408,118.349a5.778,5.778,0,0,0-4.1,1.734l-7.583,7.739a5.777,5.777,0,1,0,8.252,8.088l3.5-3.57,3.532,3.534a5.778,5.778,0,1,0,8.173-8.171l-7.66-7.661A5.725,5.725,0,0,0,340.408,118.349Z" style="" fill="currentColor"></path>
    <path d="M256.826,201.19l-16.592,16.932a5.779,5.779,0,0,0,8.255,8.089l16.593-16.932a5.779,5.779,0,0,0-8.256-8.089Z" style="" fill="currentColor"></path>
    <path d="M284.481,172.971a5.778,5.778,0,1,0,8.253,8.088l16.592-16.931a5.777,5.777,0,1,0-8.252-8.088Z" style="" fill="currentColor"></path>
</svg>