<svg xmlns="http://www.w3.org/2000/svg" viewBox="0 0 64 64" x="0px" y="0px" style="max-width:100%" height="100%"><title style="" fill="currentColor">world and time</title><g data-name="world and time" style="" fill="currentColor"><path d="M45.293,33.293l-3.274,3.274A3.915,3.915,0,0,0,41,36.142V24H39V36.142A4,4,0,0,0,36,40a3.947,3.947,0,0,0,.567,2.019l-1.274,1.274,1.414,1.414,1.274-1.274A3.915,3.915,0,0,0,39,43.858V46h2V43.858A4,4,0,0,0,44,40a3.947,3.947,0,0,0-.567-2.019l3.274-3.274ZM40,42a2,2,0,1,1,2-2A2,2,0,0,1,40,42Z" style="" fill="currentColor"></path><path d="M45.322,18.655A21.982,21.982,0,0,0,2.016,23.611,3.625,3.625,0,0,0,2,24v.007c0,.078,0,.161,0,.219,0,.039,0,.076.007.108A21.843,21.843,0,0,0,18.655,45.323,22,22,0,1,0,45.322,18.655Zm-2.179-.427c-.425-.061-.855-.108-1.288-.144a22.035,22.035,0,0,0-4.834-2.2A22.5,22.5,0,0,0,31.593,5.517,20.122,20.122,0,0,1,43.143,18.228ZM19.6,31.79a39.033,39.033,0,0,1-6.927-1.253,32.324,32.324,0,0,1,0-13.075A41.931,41.931,0,0,1,24,16a41.9,41.9,0,0,1,11.334,1.463q.1.485.193.995A22.081,22.081,0,0,0,19.6,31.79ZM24,4c4.564,0,8.766,4.448,10.772,11.242A45.084,45.084,0,0,0,24,14a45.04,45.04,0,0,0-10.773,1.243C15.232,8.451,19.435,4,24,4ZM16.419,5.5a22.485,22.485,0,0,0-5.44,10.383,19.017,19.017,0,0,0-6.386,3.3A20.156,20.156,0,0,1,16.419,5.5ZM4,24.071V24c0-.035,0-.072,0-.133,0-.022,0-.048.006-.075.151-2.09,2.541-4.136,6.488-5.617a34.521,34.521,0,0,0,0,11.65C6.548,28.343,4.158,26.294,4,24.172A.836.836,0,0,1,4,24.071ZM4.587,28.8a18.935,18.935,0,0,0,6.392,3.313,22.565,22.565,0,0,0,5.416,10.4A19.83,19.83,0,0,1,4.587,28.8Zm8.639,3.957a41.169,41.169,0,0,0,5.688.979A21.9,21.9,0,0,0,18,40c0,.44.017.876.042,1.309A19.426,19.426,0,0,1,13.226,32.757ZM40,60A20,20,0,1,1,60,40,20.023,20.023,0,0,1,40,60Z" style="" fill="currentColor"></path><path d="M40,21A19,19,0,1,0,59,40,19.021,19.021,0,0,0,40,21Zm1,35.949V54H39v2.949A16.994,16.994,0,0,1,23.051,41H26V39H23.051a16.977,16.977,0,0,1,33.9,0H54v2h2.949A16.994,16.994,0,0,1,41,56.949Z" style="" fill="currentColor"></path></g></svg>