<svg width="1910" height="215" viewBox="0 0 1910 215" fill="none" xmlns="http://www.w3.org/2000/svg">
<path d="M556.602 6.10352e-05C524.29 6.10352e-05 498 26.2891 498 58.6021H516.507H596.699H615.206H695.398H713.904H794.096H812.603H892.795H911.302H991.494H1010C1010 26.2901 983.707 6.10352e-05 951.394 6.10352e-05C930.69 6.10352e-05 912.471 10.802 902.045 27.058C891.619 10.803 873.401 6.10352e-05 852.696 6.10352e-05C831.992 6.10352e-05 813.773 10.802 803.347 27.058C792.921 10.803 774.702 6.10352e-05 753.998 6.10352e-05C733.294 6.10352e-05 715.076 10.802 704.649 27.058C694.222 10.803 676.004 6.10352e-05 655.3 6.10352e-05C634.596 6.10352e-05 616.379 10.802 605.951 27.058C595.524 10.803 577.307 6.10352e-05 556.602 6.10352e-05Z" fill="#F6F5F5"/>
<path d="M1058.6 0.349182C1026.29 0.349182 1000 26.6382 1000 58.9512H1018.51H1098.7H1117.21H1197.4H1215.9H1296.1H1314.6H1394.8H1413.3H1493.49H1512C1512 26.6392 1485.71 0.349182 1453.39 0.349182C1432.69 0.349182 1414.47 11.1512 1404.05 27.4072C1393.62 11.1522 1375.4 0.349182 1354.7 0.349182C1333.99 0.349182 1315.77 11.1512 1305.35 27.4072C1294.92 11.1522 1276.7 0.349182 1256 0.349182C1235.29 0.349182 1217.08 11.1512 1206.65 27.4072C1196.22 11.1522 1178 0.349182 1157.3 0.349182C1136.6 0.349182 1118.38 11.1512 1107.95 27.4072C1097.52 11.1522 1079.31 0.349182 1058.6 0.349182Z" fill="#F6F5F5"/>
<path d="M1456.6 0.349182C1424.29 0.349182 1398 26.6382 1398 58.9512H1416.51H1496.7H1515.21H1595.4H1613.9H1694.1H1712.6H1792.8H1811.3H1891.49H1910C1910 26.6392 1883.71 0.349182 1851.39 0.349182C1830.69 0.349182 1812.47 11.1512 1802.05 27.4072C1791.62 11.1522 1773.4 0.349182 1752.7 0.349182C1731.99 0.349182 1713.77 11.1512 1703.35 27.4072C1692.92 11.1522 1674.7 0.349182 1654 0.349182C1633.29 0.349182 1615.08 11.1512 1604.65 27.4072C1594.22 11.1522 1576 0.349182 1555.3 0.349182C1534.6 0.349182 1516.38 11.1512 1505.95 27.4072C1495.52 11.1522 1477.31 0.349182 1456.6 0.349182Z" fill="#F6F5F5"/>
<path d="M58.602 0.349182C26.29 0.349182 0 26.6382 0 58.9512H18.507H98.699H117.206H197.398H215.904H296.096H314.603H394.795H413.302H493.494H511.996C511.996 26.6392 485.707 0.349182 453.394 0.349182C432.69 0.349182 414.471 11.1512 404.045 27.4072C393.619 11.1522 375.401 0.349182 354.696 0.349182C333.992 0.349182 315.773 11.1512 305.347 27.4072C294.921 11.1522 276.702 0.349182 255.998 0.349182C235.294 0.349182 217.076 11.1512 206.649 27.4072C196.222 11.1522 178.004 0.349182 157.3 0.349182C136.596 0.349182 118.379 11.1512 107.951 27.4072C97.524 11.1522 79.307 0.349182 58.602 0.349182Z" fill="#F6F5F5"/>
<rect width="1910" height="159" transform="matrix(1 0 0 -1 0 214.951)" fill="#F6F5F5"/>
</svg>
