<svg width="1910" height="215" viewBox="0 0 1910 215" fill="none" xmlns="http://www.w3.org/2000/svg">
<path d="M556.602 214.951C524.29 214.951 498 188.662 498 156.349H516.507H596.699H615.206H695.398H713.904H794.096H812.603H892.795H911.302H991.494H1010C1010 188.661 983.707 214.951 951.394 214.951C930.69 214.951 912.471 204.149 902.045 187.893C891.619 204.148 873.401 214.951 852.696 214.951C831.992 214.951 813.773 204.149 803.347 187.893C792.921 204.148 774.702 214.951 753.998 214.951C733.294 214.951 715.076 204.149 704.649 187.893C694.222 204.148 676.004 214.951 655.3 214.951C634.596 214.951 616.379 204.149 605.951 187.893C595.524 204.148 577.307 214.951 556.602 214.951Z" fill="#F6F5F5"/>
<path d="M1058.6 214.602C1026.29 214.602 1000 188.313 1000 156H1018.51H1098.7H1117.21H1197.4H1215.9H1296.1H1314.6H1394.8H1413.3H1493.49H1512C1512 188.312 1485.71 214.602 1453.39 214.602C1432.69 214.602 1414.47 203.8 1404.05 187.544C1393.62 203.799 1375.4 214.602 1354.7 214.602C1333.99 214.602 1315.77 203.8 1305.35 187.544C1294.92 203.799 1276.7 214.602 1256 214.602C1235.29 214.602 1217.08 203.8 1206.65 187.544C1196.22 203.799 1178 214.602 1157.3 214.602C1136.6 214.602 1118.38 203.8 1107.95 187.544C1097.52 203.799 1079.31 214.602 1058.6 214.602Z" fill="#F6F5F5"/>
<path d="M1456.6 214.602C1424.29 214.602 1398 188.313 1398 156H1416.51H1496.7H1515.21H1595.4H1613.9H1694.1H1712.6H1792.8H1811.3H1891.49H1910C1910 188.312 1883.71 214.602 1851.39 214.602C1830.69 214.602 1812.47 203.8 1802.05 187.544C1791.62 203.799 1773.4 214.602 1752.7 214.602C1731.99 214.602 1713.77 203.8 1703.35 187.544C1692.92 203.799 1674.7 214.602 1654 214.602C1633.29 214.602 1615.08 203.8 1604.65 187.544C1594.22 203.799 1576 214.602 1555.3 214.602C1534.6 214.602 1516.38 203.8 1505.95 187.544C1495.52 203.799 1477.31 214.602 1456.6 214.602Z" fill="#F6F5F5"/>
<path d="M58.602 214.602C26.29 214.602 0 188.313 0 156H18.507H98.699H117.206H197.398H215.904H296.096H314.603H394.795H413.302H493.494H511.996C511.996 188.312 485.707 214.602 453.394 214.602C432.69 214.602 414.471 203.8 404.045 187.544C393.619 203.799 375.401 214.602 354.696 214.602C333.992 214.602 315.773 203.8 305.347 187.544C294.921 203.799 276.702 214.602 255.998 214.602C235.294 214.602 217.076 203.8 206.649 187.544C196.222 203.799 178.004 214.602 157.3 214.602C136.596 214.602 118.379 203.8 107.951 187.544C97.524 203.799 79.307 214.602 58.602 214.602Z" fill="#F6F5F5"/>
<rect width="1910" height="159" fill="#F6F5F5"/>
</svg>
