<svg width="716" height="357" viewBox="0 0 716 357" fill="none" xmlns="http://www.w3.org/2000/svg">
<path d="M714.149 347.098L563.157 98.8577C562.634 98.0001 561.9 97.2913 561.025 96.7991C560.15 96.3069 559.163 96.0479 558.159 96.0469H446.256V53.6966H461.048C461.817 53.697 462.578 53.5456 463.288 53.2513C463.999 52.957 464.644 52.5254 465.187 51.9813C465.731 51.4372 466.162 50.7912 466.456 50.0803C466.75 49.3694 466.901 48.6074 466.9 47.838V6.85744C466.901 6.08818 466.749 5.32644 466.455 4.61571C466.161 3.90498 465.73 3.25921 465.187 2.71526C464.643 2.17132 463.998 1.73985 463.288 1.44555C462.578 1.15124 461.817 0.999844 461.048 1H352.359C351.591 1 350.83 1.15151 350.12 1.44589C349.41 1.74027 348.765 2.17174 348.222 2.71567C347.678 3.2596 347.247 3.90533 346.953 4.61598C346.659 5.32663 346.508 6.08828 346.508 6.85744V47.838C346.508 48.6073 346.659 49.3691 346.953 50.0798C347.247 50.7906 347.678 51.4365 348.221 51.9806C348.764 52.5246 349.41 52.9562 350.12 53.2506C350.83 53.5451 351.591 53.6966 352.359 53.6966H367.249V96.0469H157.843C157.003 96.0742 156.178 96.2863 155.429 96.6681C154.679 97.0499 154.023 97.5921 153.506 98.2563C153.303 98.4826 153.006 98.5909 152.843 98.8518L1.85342 347.098C1.31328 347.986 1.01903 349.002 1.00089 350.042C0.982758 351.081 1.2414 352.106 1.75024 353.013C2.25908 353.919 2.99979 354.673 3.89628 355.198C4.79278 355.723 5.81274 356 6.85142 356H709.149C710.187 356 711.207 355.723 712.104 355.198C713 354.673 713.741 353.919 714.25 353.013C714.759 352.106 715.017 351.081 714.999 350.042C714.981 349.002 714.687 347.986 714.147 347.098H714.149ZM358.213 41.983V12.7101H455.198V41.9782H440.706C440.604 41.9723 440.516 41.9187 440.409 41.9187H373.101C372.995 41.9187 372.907 41.9723 372.804 41.9782L358.213 41.983ZM434.551 53.6966V96.0469H378.954V53.6966H434.551ZM52.6105 344.29H17.2675L157.843 113.17L175.574 142.317L52.6105 344.29ZM66.3157 344.29L182.427 153.582L298.54 344.29H66.3157ZM312.245 344.29L171.409 112.933L168.264 107.762H554.871L698.735 344.29H312.245Z" fill="#403331" stroke="#403331"/>
</svg>
