<svg width="276" height="258" viewBox="0 0 276 258" fill="none" xmlns="http://www.w3.org/2000/svg">
<path d="M252.554 230.991V213.613L274.346 191.629C274.764 191.21 274.998 190.642 274.998 190.049L274.992 170.83C275.001 170.247 274.791 169.66 274.346 169.211L252.548 147.234V129.855L274.34 107.871C274.758 107.452 274.992 106.884 274.992 106.291L274.986 87.0725C274.995 86.489 274.785 85.9025 274.34 85.4537L252.542 63.476V46.0973L274.334 24.1136C274.753 23.6947 274.986 23.1261 274.986 22.5337L274.98 3.28486C274.98 2.0431 273.975 1.04071 272.736 1.04071C271.498 1.04071 270.492 2.04609 270.492 3.28486L270.498 21.6121L250.313 41.974L230.113 21.6091L230.107 3.28486C230.107 2.0431 229.102 1.04071 227.863 1.04071C226.625 1.04071 225.62 2.04609 225.62 3.28486V21.6151L205.441 41.971L185.244 21.6091L185.235 3.28187C185.235 2.0431 184.229 1.03772 182.991 1.03772C182.06 1.03772 181.265 1.60026 180.926 2.40516V2.40815C180.873 2.53382 180.873 2.68044 180.846 2.81509C180.813 2.97068 180.75 3.1173 180.75 3.28187V21.6151L160.571 41.971L140.371 21.6061L140.365 3.28187C140.365 2.04011 139.36 1.03772 138.121 1.03772C136.882 1.03772 135.877 2.0431 135.877 3.28187V21.6121L115.698 41.968L95.4981 21.6031L95.4922 3.27888C95.4922 2.03712 94.4869 1.03473 93.2484 1.03473C92.0098 1.03473 91.0046 2.04011 91.0046 3.27888V21.6091L70.8255 41.965L50.6284 21.6001L50.6225 3.27589C50.6225 2.03412 49.6172 1.03174 48.3787 1.03174C47.1401 1.03174 46.1349 2.03712 46.1349 3.27589V21.6061L25.9558 41.9621L5.74977 21.6001V3.28187C5.74977 2.0431 4.74456 1.03772 3.50599 1.03772C2.26742 1.03772 1.26221 2.0431 1.26221 3.28187V22.5247C1.26221 23.1172 1.49556 23.6857 1.9144 24.1046L23.6911 46.0584V63.479L1.92038 85.4477C1.71695 85.6542 1.57035 85.8936 1.45966 86.1449C1.45667 86.1539 1.44769 86.1599 1.4447 86.1688C1.32802 86.4471 1.26819 86.7433 1.26819 87.0396V87.0426V106.285C1.26819 106.878 1.50154 107.446 1.92038 107.865L23.6971 129.822V147.243L1.92637 169.208C1.72293 169.415 1.57634 169.654 1.46564 169.906C1.46265 169.915 1.45368 169.921 1.45069 169.93C1.33401 170.208 1.27417 170.504 1.27417 170.8C1.27417 170.8 1.27417 170.8 1.27417 170.803V190.046C1.27417 190.639 1.50753 191.207 1.92637 191.626L23.703 213.583V231.003L1.93235 252.969C1.05877 253.849 1.06475 255.27 1.94432 256.144C2.38111 256.578 2.95552 256.793 3.52394 256.793C4.10134 256.793 4.67874 256.572 5.11553 256.129L25.9528 235.109L46.805 256.132C47.2269 256.557 47.7983 256.796 48.3966 256.796C48.995 256.796 49.5694 256.557 49.9882 256.132L70.8225 235.112L91.6717 256.132C92.0936 256.557 92.665 256.796 93.2633 256.796C93.8617 256.796 94.4361 256.557 94.8549 256.132L115.692 235.112L136.544 256.135C136.966 256.56 137.538 256.799 138.136 256.799C138.734 256.799 139.309 256.56 139.728 256.135L160.565 235.115L181.417 256.138C181.839 256.563 182.41 256.802 183.009 256.802C183.607 256.802 184.181 256.563 184.6 256.138L205.435 235.118L226.287 256.141C226.709 256.566 227.28 256.805 227.878 256.805C228.477 256.805 229.051 256.566 229.47 256.141L250.307 235.121L271.165 256.15C271.602 256.59 272.18 256.814 272.757 256.814C273.328 256.814 273.9 256.599 274.337 256.162C275.216 255.288 275.222 253.867 274.349 252.987L252.554 230.991ZM270.504 171.71L270.51 189.124L250.325 209.489L230.125 189.124L230.119 171.71L250.304 151.348L270.504 171.71ZM205.455 209.486L185.255 189.121L185.249 171.707L205.432 151.345L225.632 171.71V189.13L205.455 209.486ZM160.583 209.486L140.383 189.121L140.377 171.707L160.562 151.345L180.762 171.71V189.13L160.583 209.486ZM115.71 209.486L95.5101 189.121L95.5041 171.707L115.689 151.345L135.889 171.71V189.13L115.71 209.486ZM70.8404 209.486L50.6404 189.121L50.6344 171.707L70.8165 151.345L91.0165 171.71V189.13L70.8404 209.486ZM28.1906 147.234L28.1846 129.858L48.3906 109.475L68.5667 129.816V147.24L48.3906 167.599L28.1906 147.234ZM28.1846 63.473L28.1786 46.0973L48.3847 25.7144L68.5608 46.0584V63.479L48.3847 83.8379L28.1846 63.473ZM113.433 46.0614V63.482L93.2543 83.8409L73.0543 63.476L73.0483 46.1003L93.2543 25.7174L113.433 46.0614ZM158.306 46.0614V63.482L138.127 83.8409L117.927 63.476L117.921 46.1003L138.127 25.7174L158.306 46.0614ZM183 25.7174L203.179 46.0584V63.479L183.003 83.8379L162.803 63.473L162.797 46.0973L183 25.7174ZM248.048 46.0614L248.054 63.476L227.869 83.8409L207.669 63.476L207.663 46.1003L227.869 25.7174L248.048 46.0614ZM248.054 129.819L248.06 147.234L227.875 167.599L207.675 147.234L207.669 129.858L227.875 109.475L248.054 129.819ZM183.006 167.599L162.806 147.234L162.8 129.858L183.006 109.475L203.182 129.819V147.24L183.006 167.599ZM138.133 167.599L117.933 147.234L117.927 129.858L138.133 109.475L158.312 129.819V147.24L138.133 167.599ZM93.2603 167.599L73.0603 147.234L73.0543 129.861L93.2603 109.475L113.439 129.819V147.24L93.2603 167.599ZM50.6344 105.364L50.6284 87.9492L70.8105 67.5873L91.0106 87.9522V105.373L70.8345 125.732L50.6344 105.364ZM115.683 67.5843L135.883 87.9492V105.37L115.704 125.729L95.5041 105.364L95.4981 87.9492L115.683 67.5843ZM160.556 67.5843L180.756 87.9492V105.37L160.577 125.729L140.377 105.364L140.371 87.9492L160.556 67.5843ZM205.426 67.5843L225.626 87.9492V105.37L205.447 125.729L185.249 105.364L185.244 87.9492L205.426 67.5843ZM270.498 87.9492L270.504 105.364L250.319 125.729L230.119 105.364L230.113 87.9492L250.298 67.5873L270.498 87.9492ZM5.75576 87.9492L25.9408 67.5873L46.1409 87.9522V105.373L25.9618 125.732L5.75576 105.361V87.9492V87.9492ZM5.76174 171.707L25.9468 151.345L46.1469 171.71V189.13L25.9678 209.489L5.76174 189.118V171.707ZM48.3966 251.356L28.1966 230.991L28.1906 213.616L48.3966 193.233L68.5727 213.574V231L48.3966 251.356ZM93.2663 251.356L73.0693 230.994L73.0603 213.619L93.2663 193.233L113.445 213.577V230.997L93.2663 251.356ZM138.139 251.356L117.939 230.991L117.933 213.616L138.139 193.233L158.318 213.577V230.997L138.139 251.356ZM183.012 251.356L162.812 230.991L162.806 213.616L183.012 193.233L203.188 213.574V230.997L183.012 251.356ZM227.881 251.356L207.681 230.991L207.675 213.619L227.881 193.233L248.06 213.577L248.066 230.991L227.881 251.356Z" fill="#403331" stroke="#403331"/>
</svg>
