<svg width="271" height="216" viewBox="0 0 271 216" fill="none" xmlns="http://www.w3.org/2000/svg">
<path d="M88.0586 180.98C85.3661 178.287 81.7761 176.791 77.8868 176.791C73.9976 176.791 70.4075 178.287 67.715 180.98C65.0225 183.673 63.5266 187.264 63.5266 191.154C63.5266 195.044 65.0225 198.634 67.715 201.327C70.4075 204.02 74.2968 205.516 77.8868 205.516C81.4769 205.516 85.0669 204.02 88.0586 201.327C90.7512 198.634 92.247 195.044 92.247 191.154C92.247 187.264 90.7512 183.673 88.0586 180.98ZM84.4686 198.036C80.8785 201.627 74.5959 201.627 71.0059 198.036C69.2109 196.241 68.3134 193.847 68.3134 191.154C68.3134 188.461 69.2109 186.067 71.0059 184.272C72.8009 182.476 75.1943 181.579 77.8868 181.579C80.5794 181.579 82.9727 182.476 84.7678 184.272C86.5628 186.067 87.4603 188.461 87.4603 191.154C87.4603 193.548 86.2636 196.241 84.4686 198.036Z" fill="#403331" stroke="#403331"/>
<path d="M259.783 19.9999C259.185 19.4014 258.586 19.1022 257.689 19.4014C256.791 19.4014 256.193 19.9999 255.894 20.5983L241.234 52.6149L232.858 55.6071L205.334 44.8351L203.24 43.9375L206.83 37.0554L221.788 5.03887C222.088 4.44043 222.088 3.54277 221.788 2.94433C221.489 2.34589 220.891 1.74745 219.993 1.74745C191.273 -1.54397 168.536 26.5827 165.544 30.4726L157.766 34.6617C157.167 34.9609 156.868 35.2601 156.569 35.8585L154.774 40.6461C153.876 43.0398 155.073 45.4336 157.467 46.3312L169.433 51.1188L169.134 53.2133C166.741 68.1743 163.151 79.5447 152.979 88.8205L146.098 95.1041L113.189 62.4891C113.189 60.3946 112.292 58.5993 111.095 56.8039C101.821 45.7328 97.034 36.7562 97.9315 34.6617C101.522 25.6851 127.549 24.189 139.815 23.5905H140.414C142.508 23.5905 144.303 21.7952 144.602 19.7007C144.901 17.6061 143.705 15.5116 141.61 14.6139C119.771 7.13341 92.5464 1.74745 81.477 6.53497C68.9119 11.6217 44.3798 34.9609 43.1831 35.8585C42.884 36.1578 42.5848 36.7562 42.5848 37.0554C42.5848 37.0554 40.1914 47.5281 35.4047 52.3156C30.6179 57.1032 20.4461 59.1977 20.4461 59.1977C19.8478 59.1977 19.5486 59.4969 19.2494 59.7961L3.99171 75.0564C1.89751 76.8517 1 78.9462 1 81.0408C1 83.1353 1.89751 85.2299 3.39337 86.726L28.5237 111.86C30.0196 113.357 32.1138 114.254 34.208 114.254C36.3022 114.254 38.3964 113.357 39.8923 111.86L55.15 96.6002C55.4492 96.301 55.7483 95.7026 55.7483 95.1041C55.7483 93.0096 56.0475 90.915 56.6458 88.5213C57.5434 84.033 61.4326 80.1431 66.2193 78.3478C70.4077 76.8517 74.2969 77.4501 77.2887 79.8439L82.3746 84.3322C83.5712 85.5291 85.0671 86.1275 86.563 86.4267L119.173 119.64L60.8342 174.996C56.3467 179.484 53.6541 185.169 53.6541 191.752C53.6541 198.036 56.0475 204.02 60.5351 208.509C65.0226 212.997 70.7069 215.391 76.9895 215.391H77.2887C83.5712 215.391 89.5547 212.698 94.0422 207.91L148.491 148.964L211.018 212.398C212.813 214.194 215.506 215.391 218.198 215.391C220.891 215.391 223.284 214.493 225.378 212.398L237.944 199.831C239.739 198.036 240.935 195.343 240.935 192.65C240.935 189.957 240.038 187.563 237.944 185.469L174.22 122.632L180.503 116.05C190.974 104.978 199.949 104.081 214.907 102.585L217.301 102.285C231.96 100.789 251.705 95.1041 262.775 75.3556C281.323 42.7406 259.783 20.2991 259.783 19.9999ZM215.207 6.53497C215.506 6.53497 215.506 6.53497 215.805 6.53497L202.342 35.2601L198.752 42.4414L170.63 31.6695C176.314 24.7874 193.965 6.53497 215.207 6.53497ZM80.8787 76.5525C76.6903 72.9618 71.0061 72.0642 65.3218 74.1587C59.0392 76.2532 53.9533 81.6392 52.7566 87.6236C52.1583 90.0174 51.8591 92.1119 51.8591 94.2065L36.9005 108.868C35.4047 110.364 33.3105 110.364 31.8146 108.868L6.68425 83.7338C6.08591 83.1353 5.78674 82.2377 5.78674 81.34C5.78674 80.4423 6.08591 79.5447 6.68425 78.9462L21.3436 64.2844C24.0362 63.686 33.0113 61.5915 38.0972 56.2055C43.1831 51.1188 45.8757 41.8429 46.474 39.15C50.0641 35.8585 71.9036 15.8108 82.6737 11.3225C92.5464 7.13341 118.574 12.5194 138.918 19.4014C117.976 20.5983 97.3331 22.6929 92.8456 33.4648C90.4522 39.4492 100.325 52.9141 106.607 60.3946C108.103 62.4891 108.103 65.1821 106.308 66.9774L92.2472 81.0408C90.4522 82.8361 87.4605 82.8361 85.6654 81.34L80.8787 76.5525ZM90.4522 204.918C86.8621 208.509 82.3746 210.603 76.9895 210.902C71.9036 210.902 67.1168 209.107 63.5268 205.516C59.9367 201.926 57.8425 197.138 58.1417 192.051C58.1417 186.965 60.2359 182.177 63.8259 178.886L122.763 123.53L144.901 145.972L90.4522 204.918ZM235.55 192.949C235.55 194.445 234.952 195.642 234.054 196.54L221.489 209.107C219.395 211.202 216.104 211.202 214.01 209.107L92.8456 86.1275C94.0422 85.5291 94.9398 84.9306 95.8373 84.033L109.898 69.9696C110.497 69.3712 111.095 68.7727 111.394 68.1743L234.054 189.059C234.952 190.256 235.55 191.453 235.55 192.949ZM258.287 73.5603C248.115 91.5135 229.866 96.8994 216.403 98.3955L214.01 98.6948C198.453 100.191 187.982 101.089 176.613 113.656L170.331 120.239L149.09 99.2932L155.971 93.0096C167.04 82.5369 170.929 70.5681 173.622 54.7094L174.22 50.8195C174.519 49.6227 173.921 48.725 172.724 48.1266L159.262 42.7406L160.458 39.15L167.04 35.5593L203.838 49.6227L232.259 60.6938C232.858 60.993 233.456 60.993 234.054 60.6938L244.226 57.1032C244.825 56.8039 245.423 56.5047 245.722 55.9063L259.185 26.2835C263.074 32.5671 272.049 49.6227 258.287 73.5603Z" fill="#403331" stroke="#403331"/>
<path d="M219.694 62.1902C218.498 61.5918 217.002 62.1902 216.702 63.3871L210.121 79.545C209.522 80.7419 210.121 82.238 211.317 82.5372C211.617 82.5372 211.916 82.8364 212.215 82.8364C213.112 82.8364 214.01 82.238 214.309 81.3403L220.891 65.1824C221.489 64.2848 220.891 62.7887 219.694 62.1902Z" fill="#403331" stroke="#403331"/>
<path d="M192.768 52.3157C191.572 51.7173 190.076 52.3157 189.777 53.5126L182.896 69.6705C182.297 70.8673 182.896 72.3634 184.092 72.6627C184.391 72.6627 184.691 72.9619 184.99 72.9619C185.887 72.9619 186.785 72.3634 187.084 71.4658L193.666 55.3079C194.563 54.111 193.965 52.9141 192.768 52.3157Z" fill="#403331" stroke="#403331"/>
<path d="M206.83 55.9063C205.633 55.3078 204.137 55.9063 203.838 57.1032L196.06 76.2532C195.461 77.4501 196.06 78.9462 197.256 79.2454C197.556 79.2454 197.855 79.5447 198.154 79.5447C199.051 79.5447 199.949 78.9462 200.248 78.0486L208.027 58.8985C208.625 57.7016 208.027 56.5047 206.83 55.9063Z" fill="#403331" stroke="#403331"/>
</svg>
