<svg width="275" height="258" viewBox="0 0 275 258" fill="none" xmlns="http://www.w3.org/2000/svg">
<path d="M274.274 22.502L274.283 3.25013C274.283 2.00837 273.28 1.00598 272.039 1.00598C270.8 1.00598 269.795 2.00837 269.795 3.25013L269.786 22.502C269.786 33.7407 260.73 42.8878 249.598 42.8878C238.46 42.8878 229.401 33.7437 229.401 22.502V3.24415C229.401 2.00538 228.396 1 227.157 1C225.919 1 224.913 2.00538 224.913 3.24415V22.502C224.913 33.7407 215.855 42.8878 204.716 42.8878C193.593 42.8878 184.543 33.7437 184.543 22.502V3.25013C184.543 2.01136 183.538 1.00598 182.3 1.00598C181.061 1.00598 180.056 2.01136 180.056 3.25013V22.502C180.056 33.7407 171 42.8878 159.868 42.8878C148.727 42.8878 139.662 33.7407 139.662 22.496V3.25013C139.662 2.01136 138.656 1.00598 137.418 1.00598C136.179 1.00598 135.174 2.01136 135.174 3.25013V22.493C135.174 33.7377 126.115 42.8848 114.977 42.8848C103.842 42.8848 94.786 33.7407 94.786 22.499V3.25013C94.786 2.01136 93.7808 1.00598 92.5422 1.00598C91.3036 1.00598 90.2984 2.01136 90.2984 3.25013V22.502C90.2984 33.7407 81.2395 42.8878 70.1044 42.8878C64.7103 42.8878 59.6423 40.7693 55.8279 36.9214C52.0105 33.0704 49.9073 27.9478 49.9103 22.502L49.9043 3.25013C49.9043 2.00837 48.8991 1.00598 47.6605 1.00598C46.422 1.00598 45.4168 2.01136 45.4168 3.25013L45.4227 22.499C45.4168 33.7407 36.3638 42.8848 25.2377 42.8848C14.0935 42.8848 5.02864 33.7377 5.02864 22.493V3.25013C5.02864 2.01136 4.02343 1.00598 2.78486 1.00598C1.54629 1.00598 0.541077 2.01136 0.541077 3.25013V22.493C0.541077 35.4402 10.4107 46.0985 22.9699 47.2564L22.9789 64.3808C22.9789 69.8326 20.8787 74.9522 17.0613 78.8002C13.2529 82.6422 8.18789 84.7577 2.79982 84.7577C2.78785 84.7577 2.78187 84.7577 2.78187 84.7577C1.5433 84.7577 0.538086 85.7601 0.538086 87.0018V106.263C0.538086 119.21 10.4137 129.868 22.9759 131.02L22.9669 148.144C22.9729 153.59 20.8757 158.71 17.0583 162.558C13.2499 166.403 8.18191 168.521 2.78486 168.521C1.54629 168.521 0.541077 169.527 0.541077 170.766V190.008C0.541077 202.953 10.4167 213.608 22.9789 214.769V231.896C22.9669 243.132 13.911 252.276 2.78486 252.276C1.54629 252.276 0.541077 253.281 0.541077 254.52C0.541077 255.759 1.54629 256.764 2.78486 256.764C12.7323 256.764 21.3095 250.78 25.2107 242.207C26.4194 244.873 28.0798 247.342 30.1979 249.478C34.865 254.176 41.0638 256.767 47.6605 256.767C57.611 256.767 66.1912 250.786 70.0924 242.21C71.301 244.876 72.9614 247.342 75.0796 249.478C79.7437 254.176 85.9425 256.767 92.5332 256.767C102.487 256.767 111.067 250.786 114.968 242.21C116.177 244.876 117.837 247.345 119.955 249.478C124.622 254.176 130.821 256.767 137.418 256.767C147.377 256.767 155.955 250.78 159.853 242.198C163.745 250.78 172.316 256.767 182.267 256.767C188.869 256.767 195.071 254.179 199.738 249.478C201.856 247.342 203.517 244.876 204.725 242.21C208.63 250.783 217.213 256.767 227.169 256.767C237.12 256.767 245.694 250.78 249.586 242.198C253.481 250.78 262.065 256.767 272.027 256.767C273.266 256.767 274.271 255.762 274.271 254.523C274.271 253.284 273.266 252.279 272.027 252.279C260.889 252.279 251.83 243.135 251.83 231.893V214.772C257.547 214.263 262.869 211.792 266.992 207.665C271.692 202.962 274.283 196.693 274.277 190.02V170.768C274.277 169.53 273.271 168.524 272.033 168.524H272.03H272.027C260.889 168.524 251.83 159.38 251.83 148.141V131.023C264.389 129.886 274.277 119.225 274.286 106.263L274.277 87.0108C274.277 86.6966 274.211 86.4004 274.094 86.1281C273.753 85.3232 272.957 84.7577 272.027 84.7577C272.027 84.7577 272.021 84.7577 272.009 84.7577C266.624 84.7577 261.559 82.6422 257.747 78.8002C253.93 74.9493 251.827 69.8296 251.827 64.3838V47.2624C264.392 46.1164 274.274 35.4552 274.274 22.502ZM227.157 32.8011C230.756 40.7274 238.349 46.4306 247.339 47.2564V64.3808C247.339 75.6135 238.286 84.7577 227.157 84.7667C216.016 84.7667 206.954 75.6225 206.954 64.3808L206.96 47.2594C215.956 46.4366 223.558 40.7304 227.157 32.8011ZM204.716 210.394C193.593 210.394 184.543 201.247 184.543 190.008V172.893C193.53 172.061 201.12 166.358 204.716 158.438C208.315 166.367 215.917 172.073 224.913 172.893V190.017C224.916 195.466 222.816 200.586 218.999 204.434C215.187 208.279 210.113 210.394 204.716 210.394ZM159.868 210.394C148.727 210.388 139.662 201.244 139.662 190.008V172.896C148.655 172.073 156.251 166.37 159.853 158.444C163.455 166.379 171.06 172.088 180.056 172.899V190.011C180.056 201.244 171 210.388 159.868 210.394ZM114.977 210.394C103.842 210.388 94.786 201.244 94.786 190.008V172.896C103.779 172.073 111.375 166.37 114.971 158.441C118.573 166.37 126.175 172.073 135.174 172.896V190.008C135.174 201.244 126.115 210.388 114.977 210.394ZM70.1044 210.394C58.9662 210.388 49.9043 201.244 49.9043 190.008V172.896C58.8974 172.073 66.4964 166.37 70.0954 158.441C73.6974 166.37 81.2993 172.073 90.2984 172.896V190.008C90.2984 201.25 81.2395 210.394 70.1044 210.394ZM27.4665 131.017C36.4596 130.194 44.0615 124.488 47.6605 116.559C51.2596 124.491 58.8615 130.197 67.8606 131.017L67.8516 148.138C67.8516 159.377 58.7957 168.521 47.6605 168.521C36.5284 168.521 27.4665 159.377 27.4545 148.141L27.4665 131.017ZM182.264 168.521C171.143 168.521 162.096 159.377 162.096 148.138L162.102 131.017C171.099 130.194 178.697 124.491 182.3 116.562C185.896 124.491 193.486 130.194 202.47 131.017L202.476 148.138C202.473 159.377 193.408 168.521 182.264 168.521ZM137.418 168.521C126.277 168.521 117.215 159.377 117.215 148.138L117.221 131.014C122.965 130.499 128.305 128.004 132.434 123.839C134.552 121.702 136.215 119.237 137.424 116.571C141.026 124.494 148.622 130.197 157.615 131.017L157.609 148.138C157.609 159.377 148.553 168.521 137.418 168.521ZM92.5422 168.521C81.4011 168.521 72.3392 159.377 72.3392 148.141L72.3481 131.02C81.3382 130.2 88.9342 124.5 92.5362 116.574C93.7449 119.24 95.4053 121.705 97.5234 123.842C101.655 128.007 106.989 130.499 112.733 131.017L112.727 148.141C112.727 159.377 103.674 168.521 92.5422 168.521ZM204.71 126.643C193.59 126.643 184.543 117.498 184.543 106.257V89.1263C193.527 88.2945 201.114 82.5943 204.71 74.677C208.309 82.6093 215.914 88.3154 224.913 89.1383V106.251C224.913 117.495 215.852 126.643 204.71 126.643ZM180.056 106.26C180.056 117.498 170.997 126.645 159.859 126.645C148.721 126.645 139.662 117.501 139.662 106.26V89.1353C145.406 88.6176 150.74 86.1191 154.872 81.96C156.99 79.8235 158.653 77.361 159.862 74.6949C163.467 82.6243 171.069 88.3244 180.056 89.1353V106.26V106.26ZM135.174 106.26C135.174 111.708 133.071 116.828 129.25 120.679C125.439 124.521 120.377 126.637 114.989 126.637C114.983 126.637 114.974 126.637 114.959 126.637C109.58 126.637 104.518 124.521 100.707 120.679C96.8891 116.828 94.786 111.708 94.786 106.26V89.1293C103.773 88.3064 111.366 82.6093 114.971 74.6919C116.18 77.358 117.84 79.8265 119.958 81.96C124.087 86.1251 129.427 88.6176 135.177 89.1353V106.26H135.174ZM90.2984 106.26C90.2984 117.498 81.2395 126.645 70.1044 126.645C58.9662 126.645 49.9043 117.501 49.9043 106.26V89.1353C55.6514 88.6206 60.9886 86.1251 65.1202 81.96C67.2353 79.8295 68.8957 77.3669 70.1044 74.7069C71.313 77.3669 72.9674 79.8295 75.0796 81.96C79.2081 86.1251 84.5513 88.6206 90.2984 89.1353V106.26V106.26ZM227.157 168.521C216.019 168.521 206.96 159.377 206.96 148.138L206.954 131.017C215.953 130.194 223.555 124.488 227.157 116.553C230.756 124.479 238.349 130.185 247.339 131.017V148.138C247.339 159.377 238.286 168.521 227.157 168.521ZM182.3 32.8041C185.896 40.7304 193.489 46.4366 202.473 47.2594L202.467 64.3808C202.467 75.6165 193.405 84.7577 182.264 84.7577C171.146 84.7577 162.102 75.6165 162.096 64.3808V47.2594C171.093 46.4426 178.697 40.7364 182.3 32.8041ZM137.418 32.7951C141.017 40.7245 148.616 46.4306 157.609 47.2564V64.3808C157.612 69.8236 155.509 74.9433 151.688 78.7942C147.874 82.6362 142.806 84.7547 137.415 84.7547C137.412 84.7547 137.406 84.7547 137.4 84.7547C132.015 84.7547 126.95 82.6392 123.138 78.7972C119.324 74.9493 117.218 69.8266 117.218 64.3778L117.212 47.2564C126.214 46.4366 133.819 40.7304 137.418 32.7951ZM92.5422 32.8011C96.1412 40.7304 103.737 46.4336 112.727 47.2564L112.733 64.3778C112.733 75.6135 103.671 84.7547 92.5302 84.7547C92.5272 84.7547 92.5212 84.7547 92.5153 84.7547C87.1332 84.7547 82.0742 82.6392 78.2657 78.7972C74.4483 74.9493 72.3451 69.8266 72.3451 64.3778L72.3362 47.2564C81.3382 46.4396 88.9402 40.7334 92.5422 32.8011ZM47.6575 32.8131C48.8662 35.4791 50.5236 37.9447 52.6417 40.0781C56.7703 44.2403 62.1075 46.7418 67.8516 47.2624L67.8606 64.3808C67.8606 69.8296 65.7574 74.9493 61.937 78.8002C58.1285 82.6422 53.0606 84.7577 47.6755 84.7577C47.6695 84.7577 47.6665 84.7577 47.6605 84.7577C36.5254 84.7577 27.4665 75.6165 27.4665 64.3808L27.4575 47.2624C36.4476 46.4455 44.0525 40.7424 47.6575 32.8131ZM5.02864 106.26V89.1353C10.7817 88.6206 16.1189 86.1251 20.2505 81.96C22.3656 79.8265 24.023 77.361 25.2317 74.6949C28.8337 82.6123 36.4296 88.3094 45.4168 89.1293V106.26C45.4168 117.492 36.3608 126.637 25.2317 126.645C14.0905 126.643 5.02864 117.498 5.02864 106.26ZM5.02864 190.008V172.899C10.7817 172.381 16.1189 169.88 20.2475 165.715C22.3626 163.581 24.02 161.116 25.2257 158.453C28.8337 166.376 36.4326 172.073 45.4168 172.896V190.008C45.4168 201.247 36.3728 210.388 25.2496 210.394C25.2406 210.394 25.2317 210.388 25.2227 210.388C25.2167 210.388 25.2107 210.391 25.2018 210.391C14.0756 210.367 5.02864 201.232 5.02864 190.008ZM47.6605 252.273C42.2695 252.273 37.1985 250.155 33.3871 246.313C29.5667 242.462 27.4635 237.342 27.4665 231.896V214.769C36.4626 213.952 44.0615 208.243 47.6605 200.308C51.2596 208.234 58.8585 213.937 67.8516 214.766L67.8606 231.893C67.8516 243.132 58.7927 252.273 47.6605 252.273ZM92.5332 252.273C87.1451 252.273 82.0802 250.155 78.2657 246.313C74.4453 242.462 72.3451 237.342 72.3451 231.893L72.3362 214.769C81.3352 213.949 88.9372 208.243 92.5392 200.308C96.1382 208.234 103.734 213.94 112.724 214.766L112.73 231.893C112.727 243.132 103.668 252.273 92.5332 252.273ZM137.418 252.273C132.027 252.273 126.956 250.155 123.141 246.313C119.324 242.462 117.221 237.342 117.221 231.896L117.215 214.769C126.214 213.946 133.816 208.237 137.418 200.308C141.017 208.234 148.613 213.94 157.609 214.769V231.89C157.609 243.129 148.553 252.273 137.418 252.273ZM196.549 246.313C192.738 250.158 187.661 252.273 182.267 252.273C171.146 252.273 162.099 243.129 162.099 231.887V214.766C171.096 213.946 178.7 208.24 182.3 200.308C185.896 208.237 193.489 213.943 202.473 214.766L202.467 231.893C202.47 237.345 200.366 242.465 196.549 246.313ZM227.166 252.273C216.025 252.273 206.96 243.132 206.954 231.893L206.96 214.772C212.716 214.254 218.053 211.759 222.185 207.594C224.303 205.46 225.964 202.992 227.169 200.325C230.774 208.24 238.361 213.934 247.339 214.76V231.887C247.339 243.129 238.289 252.273 227.166 252.273ZM269.786 172.893V190.014C269.789 195.493 267.671 200.631 263.815 204.485C260.012 208.288 254.971 210.385 249.616 210.385C249.607 210.382 249.601 210.385 249.595 210.385C238.466 210.385 229.41 201.247 229.401 190.011V172.89C238.391 172.067 245.987 166.364 249.583 158.435C253.185 166.37 260.787 172.073 269.786 172.893ZM254.558 81.957C258.69 86.1251 264.033 88.6206 269.786 89.1353L269.795 106.257C269.786 117.498 260.73 126.643 249.607 126.643C238.466 126.643 229.401 117.492 229.401 106.251V89.1383C238.385 88.3124 245.975 82.6123 249.577 74.6919C250.786 77.358 252.443 79.8235 254.558 81.957Z" fill="#403331" stroke="#403331"/>
</svg>
