<svg width="1849" height="1132" viewBox="0 0 1849 1132" fill="none" xmlns="http://www.w3.org/2000/svg">
<path d="M20.4422 636.938C14.7137 636.938 9.06697 634.525 5.01608 629.903C-2.39009 621.396 -1.4899 608.512 7.02106 601.028L477.579 192.031C485.271 185.323 496.729 185.323 504.421 192.031L613.754 287.041V207.491C613.754 196.202 622.961 187.041 634.213 187.041H756.967C768.22 187.041 777.427 196.243 777.427 207.491V429.372L974.979 601.069C983.49 608.512 984.39 621.437 976.984 629.985C969.578 638.533 956.607 639.351 948.096 631.989L743.505 454.157C739.086 450.231 736.468 444.668 736.468 438.738V227.941H654.631V331.908C654.631 339.924 649.967 347.163 642.683 350.517C635.441 353.83 626.848 352.603 620.751 347.327L490.959 234.566L33.8224 631.907C29.9761 635.302 25.2296 636.938 20.4422 636.938Z" fill="#D75F3F"/>
<path d="M788.442 449.938C782.714 449.938 777.067 447.525 773.016 442.903C765.61 434.396 766.51 421.512 775.021 414.028L1245.58 5.03066C1253.27 -1.67689 1264.73 -1.67689 1272.42 5.03066L1381.75 100.041V79.5908C1381.75 68.3025 1390.96 59.141 1402.21 59.141H1524.97C1536.22 59.141 1545.43 68.3434 1545.43 79.5908V242.372L1837.59 524.632C1846.1 532.076 1847 545 1839.59 553.548C1832.19 562.096 1819.22 562.914 1810.7 555.552L1511.51 267.157C1507.09 263.231 1504.47 257.668 1504.47 251.738V100.041H1422.63V144.908C1422.63 152.924 1417.97 160.163 1410.68 163.517C1403.44 166.83 1394.85 165.603 1388.75 160.327L1258.96 47.5664L801.822 444.907C797.976 448.302 793.23 449.938 788.442 449.938Z" fill="#D75F3F"/>
<path d="M358.2 705.3C361 705.3 362.983 706.117 364.15 707.75C365.55 709.383 365.9 711.6 365.2 714.4L293.45 958.35C292.05 962.783 288.9 965 284 965H251.8C246.667 965 243.4 962.9 242 958.7L193.7 790C193.467 787.9 193 786.85 192.3 786.85C191.6 786.85 190.9 788.017 190.2 790.35L141.55 958.35C140.85 960.683 139.683 962.433 138.05 963.6C136.65 964.533 134.55 965 131.75 965H98.85C93.7167 965 90.45 962.9 89.05 958.7L18 714.75L17.3 711.6C17.3 709.733 18 708.217 19.4 707.05C20.8 705.883 22.6667 705.3 25 705.3H61.4C63.9667 705.3 65.8333 705.767 67 706.7C68.1667 707.4 68.9833 708.683 69.45 710.55L118.8 885.2C119.5 887.767 120.2 889.05 120.9 889.05C121.6 889.05 122.3 888 123 885.9L172.35 710.55C173.05 708.683 173.983 707.4 175.15 706.7C176.317 705.767 178.183 705.3 180.75 705.3H212.25C214.817 705.3 216.683 705.767 217.85 706.7C219.017 707.4 219.833 708.683 220.3 710.55L270.35 886.95C271.05 888.817 271.75 889.75 272.45 889.75C273.383 889.75 273.967 888.933 274.2 887.3L323.2 710.55C323.9 707.05 326.7 705.3 331.6 705.3H358.2ZM452.451 745.2C452.451 748 451.751 750.1 450.351 751.5C449.185 752.667 447.085 753.25 444.051 753.25H412.201C409.635 753.25 407.885 752.667 406.951 751.5C406.018 750.333 405.551 748.583 405.551 746.25V711.95C405.551 707.517 407.418 705.3 411.151 705.3H447.201C448.835 705.3 450.118 705.883 451.051 707.05C451.985 707.983 452.451 709.383 452.451 711.25V745.2ZM451.751 957.3C451.751 960.1 451.051 962.083 449.651 963.25C448.485 964.417 446.385 965 443.351 965H412.901C410.335 965 408.585 964.533 407.651 963.6C406.718 962.667 406.251 961.033 406.251 958.7V785.45C406.251 781.483 408.001 779.5 411.501 779.5H446.851C450.118 779.5 451.751 781.367 451.751 785.1V957.3ZM546.552 957.3C546.552 960.333 545.969 962.433 544.802 963.6C543.635 964.533 541.535 965 538.502 965H507.702C505.135 965 503.269 964.533 502.102 963.6C501.169 962.667 500.702 961.033 500.702 958.7L501.752 711.25C501.752 707.283 503.502 705.3 507.002 705.3H541.652C544.919 705.3 546.552 707.167 546.552 710.9V957.3ZM641.695 957.3C641.695 960.333 641.111 962.433 639.945 963.6C638.778 964.533 636.678 965 633.645 965H602.845C600.278 965 598.411 964.533 597.245 963.6C596.311 962.667 595.845 961.033 595.845 958.7L596.895 711.25C596.895 707.283 598.645 705.3 602.145 705.3H636.795C640.061 705.3 641.695 707.167 641.695 710.9V957.3ZM729.137 886.6C729.137 896.167 731.354 904.8 735.787 912.5C740.22 919.967 746.287 925.917 753.987 930.35C761.92 934.55 770.554 936.65 779.887 936.65C789.454 936.65 798.087 934.667 805.787 930.7C813.72 926.5 821.187 920.083 828.187 911.45C829.354 910.283 830.287 909.7 830.987 909.7C831.687 909.7 832.737 910.05 834.137 910.75L855.487 920.2C857.12 920.9 857.937 921.95 857.937 923.35C857.937 924.05 857.47 925.1 856.537 926.5C846.037 941.667 834.37 952.517 821.537 959.05C808.937 965.35 793.304 968.5 774.637 968.5C756.904 968.5 740.92 964.533 726.687 956.6C712.687 948.667 701.72 937.583 693.787 923.35C685.854 909.117 681.887 892.9 681.887 874.7C681.887 855.1 685.97 837.833 694.137 822.9C702.304 807.967 713.387 796.417 727.387 788.25C741.387 780.083 756.904 776 773.937 776C791.437 776 806.837 779.85 820.137 787.55C833.67 795.25 844.054 806.45 851.287 821.15C858.754 835.617 862.487 852.883 862.487 872.95V874.35C862.487 876.683 862.137 878.317 861.437 879.25C860.737 880.183 859.22 880.767 856.887 881H732.987C730.42 881 729.137 882.867 729.137 886.6ZM812.087 855.1C814.42 855.1 815.937 854.867 816.637 854.4C817.57 853.7 818.037 852.3 818.037 850.2C818.037 842.733 816.404 835.5 813.137 828.5C809.87 821.5 804.97 815.783 798.437 811.35C792.137 806.917 784.554 804.7 775.687 804.7C761.92 804.7 750.72 809.6 742.087 819.4C733.687 828.967 729.604 840.867 729.837 855.1H812.087ZM907.282 965C903.082 965 900.982 962.9 900.982 958.7V785.45C900.982 781.483 902.615 779.5 905.882 779.5H939.832C943.098 779.5 944.732 781.25 944.732 784.75V806.1C944.732 807.967 945.315 808.9 946.482 808.9C947.182 808.9 948.115 808.317 949.282 807.15C956.982 797.35 965.498 789.767 974.832 784.4C984.165 778.8 993.265 776 1002.13 776C1010.53 776 1014.73 777.867 1014.73 781.6V815.2C1014.73 818.467 1013.21 819.867 1010.18 819.4C1003.65 817.767 996.415 816.95 988.482 816.95C982.415 816.95 975.998 818.583 969.232 821.85C962.698 825.117 957.215 829.433 952.782 834.8C948.582 839.933 946.482 845.3 946.482 850.9V958C946.482 962.667 943.798 965 938.432 965H907.282ZM1257.68 956.6C1258.14 957.3 1258.38 958.35 1258.38 959.75C1258.38 961.15 1257.91 962.433 1256.98 963.6C1256.04 964.533 1254.76 965 1253.13 965H1210.43C1208.56 965 1207.04 964.65 1205.88 963.95C1204.94 963.017 1204.13 961.5 1203.43 959.4L1163.18 857.2C1162.48 855.567 1161.43 854.4 1160.03 853.7C1158.63 853 1156.53 852.65 1153.73 852.65H1111.73C1108.93 852.65 1107.53 853.933 1107.53 856.5V957.65C1107.53 960.217 1106.83 962.083 1105.43 963.25C1104.26 964.417 1102.28 965 1099.48 965H1062.38C1059.81 965 1058.06 964.533 1057.13 963.6C1056.19 962.433 1055.73 960.8 1055.73 958.7V711.25C1055.73 707.283 1057.48 705.3 1060.98 705.3H1166.33C1196.43 705.3 1219.76 711.367 1236.33 723.5C1252.89 735.633 1261.18 752.9 1261.18 775.3C1261.18 792.8 1256.51 807.383 1247.18 819.05C1237.84 830.717 1226.18 839 1212.18 843.9C1210.31 844.6 1209.84 846.117 1210.78 848.45L1257.68 956.6ZM1158.98 816.95C1191.41 816.95 1207.63 804.35 1207.63 779.15C1207.63 766.55 1203.66 756.983 1195.73 750.45C1188.03 743.917 1177.18 740.65 1163.18 740.65H1113.83C1111.49 740.65 1109.86 741 1108.93 741.7C1107.99 742.4 1107.53 743.683 1107.53 745.55V811.7C1107.53 813.567 1107.88 814.967 1108.58 815.9C1109.28 816.6 1110.44 816.95 1112.08 816.95H1158.98ZM1387.49 968.5C1369.52 968.5 1353.54 964.533 1339.54 956.6C1325.54 948.433 1314.69 937.117 1306.99 922.65C1299.29 908.183 1295.44 891.733 1295.44 873.3C1295.44 854.4 1299.41 837.6 1307.34 822.9C1315.27 807.967 1326.24 796.417 1340.24 788.25C1354.24 780.083 1370.11 776 1387.84 776C1405.81 776 1421.79 780.2 1435.79 788.6C1449.79 796.767 1460.64 808.2 1468.34 822.9C1476.04 837.6 1479.89 854.283 1479.89 872.95C1479.89 891.383 1475.92 907.833 1467.99 922.3C1460.29 936.767 1449.44 948.083 1435.44 956.25C1421.44 964.417 1405.46 968.5 1387.49 968.5ZM1387.84 937.35C1402.77 937.35 1414.09 931.75 1421.79 920.55C1429.72 909.35 1433.69 893.25 1433.69 872.25C1433.69 851.017 1429.72 834.683 1421.79 823.25C1413.86 811.817 1402.54 806.1 1387.84 806.1C1373.14 806.1 1361.71 811.817 1353.54 823.25C1345.61 834.683 1341.64 851.017 1341.64 872.25C1341.64 893.25 1345.61 909.35 1353.54 920.55C1361.71 931.75 1373.14 937.35 1387.84 937.35ZM1602.26 968.5C1584.29 968.5 1568.31 964.533 1554.31 956.6C1540.31 948.433 1529.46 937.117 1521.76 922.65C1514.06 908.183 1510.21 891.733 1510.21 873.3C1510.21 854.4 1514.18 837.6 1522.11 822.9C1530.04 807.967 1541.01 796.417 1555.01 788.25C1569.01 780.083 1584.88 776 1602.61 776C1620.58 776 1636.56 780.2 1650.56 788.6C1664.56 796.767 1675.41 808.2 1683.11 822.9C1690.81 837.6 1694.66 854.283 1694.66 872.95C1694.66 891.383 1690.69 907.833 1682.76 922.3C1675.06 936.767 1664.21 948.083 1650.21 956.25C1636.21 964.417 1620.23 968.5 1602.26 968.5ZM1602.61 937.35C1617.54 937.35 1628.86 931.75 1636.56 920.55C1644.49 909.35 1648.46 893.25 1648.46 872.25C1648.46 851.017 1644.49 834.683 1636.56 823.25C1628.63 811.817 1617.31 806.1 1602.61 806.1C1587.91 806.1 1576.48 811.817 1568.31 823.25C1560.38 834.683 1556.41 851.017 1556.41 872.25C1556.41 893.25 1560.38 909.35 1568.31 920.55C1576.48 931.75 1587.91 937.35 1602.61 937.35ZM1832.21 779.5C1835.94 779.5 1837.81 781.25 1837.81 784.75V806.8C1837.81 809.833 1836.06 811.35 1832.56 811.35H1800.01C1797.67 811.35 1796.51 812.517 1796.51 814.85V959.05C1796.51 963.017 1794.76 965 1791.26 965H1755.91C1752.64 965 1751.01 963.133 1751.01 959.4V814.5C1751.01 812.4 1750.19 811.35 1748.56 811.35H1720.21C1716.71 811.35 1714.96 809.833 1714.96 806.8V784.75C1714.96 781.25 1716.82 779.5 1720.56 779.5H1747.16C1749.72 779.5 1751.01 777.983 1751.01 774.95V752.2C1751.01 737.267 1755.21 725.717 1763.61 717.55C1772.01 709.383 1783.91 705.3 1799.31 705.3H1832.56C1836.99 705.3 1839.21 707.4 1839.21 711.6L1839.56 731.2C1839.56 732.6 1839.09 733.767 1838.16 734.7C1837.46 735.633 1836.29 736.1 1834.66 736.1H1814.01C1807.94 736.1 1803.27 738.2 1800.01 742.4C1796.97 746.367 1795.46 751.733 1795.46 758.5V776C1795.46 778.333 1796.74 779.5 1799.31 779.5H1832.21Z" fill="#D75F3F"/>
<path d="M101.738 1092.38V1128H91.7773V1042.34H115.273C125.781 1042.34 133.535 1044.35 138.535 1048.37C143.574 1052.39 146.094 1058.45 146.094 1066.54C146.094 1077.86 140.352 1085.52 128.867 1089.5L152.129 1128H140.352L119.609 1092.38H101.738ZM101.738 1083.82H115.391C122.422 1083.82 127.578 1082.43 130.859 1079.66C134.141 1076.85 135.781 1072.65 135.781 1067.06C135.781 1061.4 134.102 1057.32 130.742 1054.82C127.422 1052.32 122.07 1051.07 114.688 1051.07H101.738V1083.82ZM281.713 1085.05C281.713 1098.76 278.236 1109.54 271.283 1117.39C264.369 1125.25 254.74 1129.17 242.396 1129.17C229.779 1129.17 220.033 1125.32 213.158 1117.63C206.322 1109.89 202.904 1099 202.904 1084.93C202.904 1070.99 206.341 1060.19 213.216 1052.53C220.091 1044.84 229.857 1040.99 242.513 1040.99C254.818 1040.99 264.427 1044.89 271.341 1052.71C278.255 1060.52 281.713 1071.3 281.713 1085.05ZM213.451 1085.05C213.451 1096.65 215.912 1105.46 220.834 1111.48C225.795 1117.45 232.982 1120.44 242.396 1120.44C251.888 1120.44 259.056 1117.45 263.9 1111.48C268.744 1105.5 271.166 1096.69 271.166 1085.05C271.166 1073.53 268.744 1064.8 263.9 1058.86C259.095 1052.88 251.966 1049.89 242.513 1049.89C233.021 1049.89 225.795 1052.9 220.834 1058.92C215.912 1064.89 213.451 1073.61 213.451 1085.05ZM416.628 1085.05C416.628 1098.76 413.152 1109.54 406.198 1117.39C399.284 1125.25 389.655 1129.17 377.312 1129.17C364.695 1129.17 354.948 1125.32 348.073 1117.63C341.238 1109.89 337.82 1099 337.82 1084.93C337.82 1070.99 341.257 1060.19 348.132 1052.53C355.007 1044.84 364.773 1040.99 377.429 1040.99C389.734 1040.99 399.343 1044.89 406.257 1052.71C413.171 1060.52 416.628 1071.3 416.628 1085.05ZM348.366 1085.05C348.366 1096.65 350.827 1105.46 355.749 1111.48C360.71 1117.45 367.898 1120.44 377.312 1120.44C386.804 1120.44 393.972 1117.45 398.816 1111.48C403.659 1105.5 406.081 1096.69 406.081 1085.05C406.081 1073.53 403.659 1064.8 398.816 1058.86C394.011 1052.88 386.882 1049.89 377.429 1049.89C367.937 1049.89 360.71 1052.9 355.749 1058.92C350.827 1064.89 348.366 1073.61 348.366 1085.05ZM487.149 1128H477.188V1042.34H524.942V1051.18H487.149V1082.53H522.657V1091.38H487.149V1128ZM580.58 1128V1042.34H590.541V1128H580.58ZM722.41 1128H711.043L664.227 1056.11H663.758C664.383 1064.54 664.695 1072.28 664.695 1079.31V1128H655.496V1042.34H666.746L713.445 1113.94H713.914C713.836 1112.88 713.66 1109.5 713.387 1103.8C713.113 1098.06 713.016 1093.96 713.094 1091.5V1042.34H722.41V1128ZM825.041 1083.12H854.162V1124.78C849.63 1126.22 845.021 1127.32 840.334 1128.06C835.646 1128.8 830.216 1129.17 824.045 1129.17C811.076 1129.17 800.978 1125.32 793.752 1117.63C786.525 1109.89 782.912 1099.07 782.912 1085.17C782.912 1076.26 784.689 1068.47 788.244 1061.79C791.838 1055.07 796.994 1049.95 803.713 1046.44C810.431 1042.88 818.302 1041.11 827.326 1041.11C836.466 1041.11 844.982 1042.79 852.873 1046.14L849.005 1054.93C841.271 1051.65 833.83 1050.01 826.681 1050.01C816.252 1050.01 808.107 1053.12 802.248 1059.33C796.388 1065.54 793.459 1074.15 793.459 1085.17C793.459 1096.73 796.271 1105.5 801.896 1111.48C807.56 1117.45 815.861 1120.44 826.798 1120.44C832.736 1120.44 838.537 1119.76 844.201 1118.39V1092.02H825.041V1083.12ZM1025.44 1050.01C1016.02 1050.01 1008.58 1053.16 1003.11 1059.45C997.684 1065.7 994.97 1074.27 994.97 1085.17C994.97 1096.38 997.587 1105.05 1002.82 1111.18C1008.09 1117.28 1015.59 1120.32 1025.32 1120.32C1031.3 1120.32 1038.11 1119.25 1045.77 1117.1V1125.83C1039.83 1128.06 1032.51 1129.17 1023.8 1129.17C1011.18 1129.17 1001.43 1125.34 994.559 1117.69C987.723 1110.03 984.305 1099.15 984.305 1085.05C984.305 1076.22 985.946 1068.49 989.227 1061.85C992.548 1055.21 997.313 1050.09 1003.52 1046.5C1009.77 1042.9 1017.12 1041.11 1025.56 1041.11C1034.54 1041.11 1042.39 1042.75 1049.11 1046.03L1044.89 1054.58C1038.41 1051.54 1031.92 1050.01 1025.44 1050.01ZM1180.22 1085.05C1180.22 1098.76 1176.74 1109.54 1169.79 1117.39C1162.87 1125.25 1153.24 1129.17 1140.9 1129.17C1128.28 1129.17 1118.54 1125.32 1111.66 1117.63C1104.83 1109.89 1101.41 1099 1101.41 1084.93C1101.41 1070.99 1104.85 1060.19 1111.72 1052.53C1118.6 1044.84 1128.36 1040.99 1141.02 1040.99C1153.32 1040.99 1162.93 1044.89 1169.85 1052.71C1176.76 1060.52 1180.22 1071.3 1180.22 1085.05ZM1111.96 1085.05C1111.96 1096.65 1114.42 1105.46 1119.34 1111.48C1124.3 1117.45 1131.49 1120.44 1140.9 1120.44C1150.39 1120.44 1157.56 1117.45 1162.4 1111.48C1167.25 1105.5 1169.67 1096.69 1169.67 1085.05C1169.67 1073.53 1167.25 1064.8 1162.4 1058.86C1157.6 1052.88 1150.47 1049.89 1141.02 1049.89C1131.53 1049.89 1124.3 1052.9 1119.34 1058.92C1114.42 1064.89 1111.96 1073.61 1111.96 1085.05ZM1278.69 1128L1249.62 1052.06H1249.16C1249.7 1058.08 1249.98 1065.23 1249.98 1073.51V1128H1240.78V1042.34H1255.78L1282.91 1113H1283.38L1310.74 1042.34H1325.62V1128H1315.66V1072.8C1315.66 1066.48 1315.93 1059.6 1316.48 1052.18H1316.01L1286.71 1128H1278.69ZM1444.89 1067.3C1444.89 1075.97 1441.92 1082.65 1435.99 1087.34C1430.09 1091.98 1421.63 1094.31 1410.61 1094.31H1400.54V1128H1390.58V1042.34H1412.78C1434.19 1042.34 1444.89 1050.66 1444.89 1067.3ZM1400.54 1085.75H1409.5C1418.33 1085.75 1424.72 1084.33 1428.66 1081.48C1432.61 1078.62 1434.58 1074.05 1434.58 1067.77C1434.58 1062.1 1432.72 1057.88 1429.01 1055.11C1425.3 1052.34 1419.52 1050.95 1411.67 1050.95H1400.54V1085.75ZM1558.13 1128L1547.46 1100.75H1513.13L1502.58 1128H1492.5L1526.37 1041.98H1534.75L1568.44 1128H1558.13ZM1544.36 1091.79L1534.4 1065.25C1533.11 1061.89 1531.78 1057.77 1530.41 1052.88C1529.55 1056.63 1528.32 1060.75 1526.72 1065.25L1516.64 1091.79H1544.36ZM1688.53 1128H1677.16L1630.35 1056.11H1629.88C1630.5 1064.54 1630.82 1072.28 1630.82 1079.31V1128H1621.62V1042.34H1632.87L1679.57 1113.94H1680.04C1679.96 1112.88 1679.78 1109.5 1679.51 1103.8C1679.24 1098.06 1679.14 1093.96 1679.22 1091.5V1042.34H1688.53V1128ZM1775.28 1085.17L1798.14 1042.34H1808.92L1780.32 1094.78V1128H1770.24V1095.25L1741.71 1042.34H1752.61L1775.28 1085.17Z" fill="#403331"/>
<path d="M101.738 1092.38V1091.38H100.738V1092.38H101.738ZM101.738 1128V1129H102.738V1128H101.738ZM91.7773 1128H90.7773V1129H91.7773V1128ZM91.7773 1042.34V1041.34H90.7773V1042.34H91.7773ZM138.535 1048.37L137.908 1049.15L137.911 1049.15L138.535 1048.37ZM128.867 1089.5L128.539 1088.56L127.373 1088.96L128.011 1090.02L128.867 1089.5ZM152.129 1128V1129H153.902L152.985 1127.48L152.129 1128ZM140.352 1128L139.487 1128.5L139.777 1129H140.352V1128ZM119.609 1092.38L120.474 1091.87L120.184 1091.38H119.609V1092.38ZM101.738 1083.82H100.738V1084.82H101.738V1083.82ZM130.859 1079.66L131.505 1080.42L131.51 1080.42L130.859 1079.66ZM130.742 1054.82L130.141 1055.62L130.145 1055.62L130.742 1054.82ZM101.738 1051.07V1050.07H100.738V1051.07H101.738ZM100.738 1092.38V1128H102.738V1092.38H100.738ZM101.738 1127H91.7773V1129H101.738V1127ZM92.7773 1128V1042.34H90.7773V1128H92.7773ZM91.7773 1043.34H115.273V1041.34H91.7773V1043.34ZM115.273 1043.34C125.688 1043.34 133.168 1045.34 137.908 1049.15L139.162 1047.59C133.902 1043.36 125.875 1041.34 115.273 1041.34V1043.34ZM137.911 1049.15C142.654 1052.94 145.094 1058.67 145.094 1066.54H147.094C147.094 1058.23 144.495 1051.85 139.159 1047.59L137.911 1049.15ZM145.094 1066.54C145.094 1072.02 143.706 1076.55 140.987 1080.17C138.264 1083.8 134.144 1086.61 128.539 1088.56L129.195 1090.45C135.075 1088.41 139.568 1085.4 142.587 1081.37C145.611 1077.34 147.094 1072.37 147.094 1066.54H145.094ZM128.011 1090.02L151.273 1128.52L152.985 1127.48L129.723 1088.99L128.011 1090.02ZM152.129 1127H140.352V1129H152.129V1127ZM141.216 1127.5L120.474 1091.87L118.745 1092.88L139.487 1128.5L141.216 1127.5ZM119.609 1091.38H101.738V1093.38H119.609V1091.38ZM101.738 1084.82H115.391V1082.82H101.738V1084.82ZM115.391 1084.82C122.518 1084.82 127.959 1083.42 131.505 1080.42L130.214 1078.9C127.197 1081.45 122.326 1082.82 115.391 1082.82V1084.82ZM131.51 1080.42C135.074 1077.36 136.781 1072.85 136.781 1067.06H134.781C134.781 1072.45 133.207 1076.33 130.209 1078.9L131.51 1080.42ZM136.781 1067.06C136.781 1061.2 135.035 1056.76 131.339 1054.01L130.145 1055.62C133.168 1057.87 134.781 1061.59 134.781 1067.06H136.781ZM131.344 1054.02C127.76 1051.32 122.138 1050.07 114.688 1050.07V1052.07C122.002 1052.07 127.084 1053.31 130.141 1055.62L131.344 1054.02ZM114.688 1050.07H101.738V1052.07H114.688V1050.07ZM100.738 1051.07V1083.82H102.738V1051.07H100.738ZM271.283 1117.39L270.534 1116.73L270.532 1116.73L271.283 1117.39ZM213.158 1117.63L212.409 1118.29L212.412 1118.3L213.158 1117.63ZM213.216 1052.53L213.96 1053.2L213.962 1053.2L213.216 1052.53ZM220.834 1111.48L220.06 1112.11L220.064 1112.12L220.834 1111.48ZM263.9 1111.48L264.677 1112.11L263.9 1111.48ZM263.9 1058.86L263.121 1059.49L263.125 1059.49L263.9 1058.86ZM220.834 1058.92L220.062 1058.28L220.062 1058.28L220.834 1058.92ZM280.713 1085.05C280.713 1098.59 277.281 1109.11 270.534 1116.73L272.031 1118.06C279.191 1109.97 282.713 1098.93 282.713 1085.05H280.713ZM270.532 1116.73C263.843 1124.33 254.509 1128.17 242.396 1128.17V1130.17C254.97 1130.17 264.895 1126.16 272.033 1118.06L270.532 1116.73ZM242.396 1128.17C229.995 1128.17 220.547 1124.4 213.904 1116.96L212.412 1118.3C219.518 1126.25 229.563 1130.17 242.396 1130.17V1128.17ZM213.907 1116.97C207.283 1109.47 203.904 1098.84 203.904 1084.93H201.904C201.904 1099.15 205.361 1110.32 212.409 1118.29L213.907 1116.97ZM203.904 1084.93C203.904 1071.15 207.301 1060.62 213.96 1053.2L212.472 1051.86C205.382 1059.76 201.904 1070.83 201.904 1084.93H203.904ZM213.962 1053.2C220.605 1045.76 230.072 1041.99 242.513 1041.99V1039.99C229.642 1039.99 219.577 1043.91 212.471 1051.87L213.962 1053.2ZM242.513 1041.99C254.588 1041.99 263.903 1045.81 270.593 1053.37L272.09 1052.04C264.952 1043.98 255.048 1039.99 242.513 1039.99V1041.99ZM270.593 1053.37C277.299 1060.95 280.713 1071.47 280.713 1085.05H282.713C282.713 1071.14 279.212 1060.09 272.09 1052.04L270.593 1053.37ZM212.451 1085.05C212.451 1096.77 214.935 1105.85 220.06 1112.11L221.608 1110.84C216.889 1105.08 214.451 1096.53 214.451 1085.05H212.451ZM220.064 1112.12C225.255 1118.37 232.754 1121.44 242.396 1121.44V1119.44C233.21 1119.44 226.334 1116.54 221.603 1110.84L220.064 1112.12ZM242.396 1121.44C252.112 1121.44 259.599 1118.37 264.677 1112.11L263.123 1110.85C258.513 1116.53 251.664 1119.44 242.396 1119.44V1121.44ZM264.677 1112.11C269.723 1105.88 272.166 1096.81 272.166 1085.05H270.166C270.166 1096.57 267.765 1105.12 263.123 1110.85L264.677 1112.11ZM272.166 1085.05C272.166 1073.41 269.722 1064.41 264.675 1058.23L263.125 1059.49C267.766 1065.18 270.166 1073.65 270.166 1085.05H272.166ZM264.679 1058.23C259.641 1051.97 252.192 1048.89 242.513 1048.89V1050.89C251.741 1050.89 258.55 1053.8 263.121 1059.49L264.679 1058.23ZM242.513 1048.89C232.794 1048.89 225.254 1051.99 220.062 1058.28L221.605 1059.55C226.335 1053.82 233.248 1050.89 242.513 1050.89V1048.89ZM220.062 1058.28C214.936 1064.51 212.451 1073.48 212.451 1085.05H214.451C214.451 1073.73 216.887 1065.28 221.606 1059.55L220.062 1058.28ZM406.198 1117.39L405.45 1116.73L405.448 1116.73L406.198 1117.39ZM348.073 1117.63L347.324 1118.29L347.328 1118.3L348.073 1117.63ZM348.132 1052.53L348.876 1053.2L348.878 1053.2L348.132 1052.53ZM355.749 1111.48L354.975 1112.11L354.98 1112.12L355.749 1111.48ZM398.816 1111.48L399.593 1112.11L398.816 1111.48ZM398.816 1058.86L398.036 1059.49L398.041 1059.49L398.816 1058.86ZM355.749 1058.92L354.978 1058.28L354.977 1058.28L355.749 1058.92ZM415.628 1085.05C415.628 1098.59 412.196 1109.11 405.45 1116.73L406.947 1118.06C414.107 1109.97 417.628 1098.93 417.628 1085.05H415.628ZM405.448 1116.73C398.758 1124.33 389.425 1128.17 377.312 1128.17V1130.17C389.886 1130.17 399.81 1126.16 406.949 1118.06L405.448 1116.73ZM377.312 1128.17C364.911 1128.17 355.463 1124.4 348.819 1116.96L347.328 1118.3C354.434 1126.25 364.478 1130.17 377.312 1130.17V1128.17ZM348.823 1116.97C342.199 1109.47 338.82 1098.84 338.82 1084.93H336.82C336.82 1099.15 340.276 1110.32 347.324 1118.29L348.823 1116.97ZM338.82 1084.93C338.82 1071.15 342.217 1060.62 348.876 1053.2L347.388 1051.86C340.297 1059.76 336.82 1070.83 336.82 1084.93H338.82ZM348.878 1053.2C355.521 1045.76 364.988 1041.99 377.429 1041.99V1039.99C364.558 1039.99 354.493 1043.91 347.386 1051.87L348.878 1053.2ZM377.429 1041.99C389.504 1041.99 398.818 1045.81 405.508 1053.37L407.006 1052.04C399.868 1043.98 389.964 1039.99 377.429 1039.99V1041.99ZM405.508 1053.37C412.215 1060.95 415.628 1071.47 415.628 1085.05H417.628C417.628 1071.14 414.127 1060.09 407.006 1052.04L405.508 1053.37ZM347.366 1085.05C347.366 1096.77 349.85 1105.85 354.975 1112.11L356.523 1110.84C351.804 1105.08 349.366 1096.53 349.366 1085.05H347.366ZM354.98 1112.12C360.171 1118.37 367.67 1121.44 377.312 1121.44V1119.44C368.126 1119.44 361.249 1116.54 356.519 1110.84L354.98 1112.12ZM377.312 1121.44C387.028 1121.44 394.515 1118.37 399.593 1112.11L398.039 1110.85C393.429 1116.53 386.58 1119.44 377.312 1119.44V1121.44ZM399.593 1112.11C404.638 1105.88 407.081 1096.81 407.081 1085.05H405.081C405.081 1096.57 402.68 1105.12 398.039 1110.85L399.593 1112.11ZM407.081 1085.05C407.081 1073.41 404.637 1064.41 399.59 1058.23L398.041 1059.49C402.681 1065.18 405.081 1073.65 405.081 1085.05H407.081ZM399.595 1058.23C394.557 1051.97 387.107 1048.89 377.429 1048.89V1050.89C386.657 1050.89 393.465 1053.8 398.036 1059.49L399.595 1058.23ZM377.429 1048.89C367.71 1048.89 360.17 1051.99 354.978 1058.28L356.521 1059.55C361.251 1053.82 368.164 1050.89 377.429 1050.89V1048.89ZM354.977 1058.28C349.852 1064.51 347.366 1073.48 347.366 1085.05H349.366C349.366 1073.73 351.803 1065.28 356.521 1059.55L354.977 1058.28ZM487.149 1128V1129H488.149V1128H487.149ZM477.188 1128H476.188V1129H477.188V1128ZM477.188 1042.34V1041.34H476.188V1042.34H477.188ZM524.942 1042.34H525.942V1041.34H524.942V1042.34ZM524.942 1051.18V1052.18H525.942V1051.18H524.942ZM487.149 1051.18V1050.18H486.149V1051.18H487.149ZM487.149 1082.53H486.149V1083.53H487.149V1082.53ZM522.657 1082.53H523.657V1081.53H522.657V1082.53ZM522.657 1091.38V1092.38H523.657V1091.38H522.657ZM487.149 1091.38V1090.38H486.149V1091.38H487.149ZM487.149 1127H477.188V1129H487.149V1127ZM478.188 1128V1042.34H476.188V1128H478.188ZM477.188 1043.34H524.942V1041.34H477.188V1043.34ZM523.942 1042.34V1051.18H525.942V1042.34H523.942ZM524.942 1050.18H487.149V1052.18H524.942V1050.18ZM486.149 1051.18V1082.53H488.149V1051.18H486.149ZM487.149 1083.53H522.657V1081.53H487.149V1083.53ZM521.657 1082.53V1091.38H523.657V1082.53H521.657ZM522.657 1090.38H487.149V1092.38H522.657V1090.38ZM486.149 1091.38V1128H488.149V1091.38H486.149ZM580.58 1128H579.58V1129H580.58V1128ZM580.58 1042.34V1041.34H579.58V1042.34H580.58ZM590.541 1042.34H591.541V1041.34H590.541V1042.34ZM590.541 1128V1129H591.541V1128H590.541ZM581.58 1128V1042.34H579.58V1128H581.58ZM580.58 1043.34H590.541V1041.34H580.58V1043.34ZM589.541 1042.34V1128H591.541V1042.34H589.541ZM590.541 1127H580.58V1129H590.541V1127ZM722.41 1128V1129H723.41V1128H722.41ZM711.043 1128L710.205 1128.55L710.501 1129H711.043V1128ZM664.227 1056.11L665.065 1055.56L664.769 1055.11H664.227V1056.11ZM663.758 1056.11V1055.11H662.681L662.761 1056.18L663.758 1056.11ZM664.695 1128V1129H665.695V1128H664.695ZM655.496 1128H654.496V1129H655.496V1128ZM655.496 1042.34V1041.34H654.496V1042.34H655.496ZM666.746 1042.34L667.584 1041.79L667.288 1041.34H666.746V1042.34ZM713.445 1113.94L712.608 1114.48L712.904 1114.94H713.445V1113.94ZM713.914 1113.94V1114.94H714.991L714.911 1113.86L713.914 1113.94ZM713.387 1103.8L712.388 1103.85L712.388 1103.85L713.387 1103.8ZM713.094 1091.5L714.093 1091.53L714.094 1091.51V1091.5H713.094ZM713.094 1042.34V1041.34H712.094V1042.34H713.094ZM722.41 1042.34H723.41V1041.34H722.41V1042.34ZM722.41 1127H711.043V1129H722.41V1127ZM711.881 1127.45L665.065 1055.56L663.389 1056.65L710.205 1128.55L711.881 1127.45ZM664.227 1055.11H663.758V1057.11H664.227V1055.11ZM662.761 1056.18C663.384 1064.6 663.695 1072.31 663.695 1079.31H665.695C665.695 1072.25 665.382 1064.49 664.755 1056.03L662.761 1056.18ZM663.695 1079.31V1128H665.695V1079.31H663.695ZM664.695 1127H655.496V1129H664.695V1127ZM656.496 1128V1042.34H654.496V1128H656.496ZM655.496 1043.34H666.746V1041.34H655.496V1043.34ZM665.908 1042.88L712.608 1114.48L714.283 1113.39L667.584 1041.79L665.908 1042.88ZM713.445 1114.94H713.914V1112.94H713.445V1114.94ZM714.911 1113.86C714.834 1112.83 714.659 1109.46 714.386 1103.75L712.388 1103.85C712.661 1109.54 712.837 1112.94 712.917 1114.01L714.911 1113.86ZM714.386 1103.75C714.112 1098.01 714.016 1093.95 714.093 1091.53L712.094 1091.46C712.015 1093.97 712.114 1098.11 712.388 1103.85L714.386 1103.75ZM714.094 1091.5V1042.34H712.094V1091.5H714.094ZM713.094 1043.34H722.41V1041.34H713.094V1043.34ZM721.41 1042.34V1128H723.41V1042.34H721.41ZM825.041 1083.12V1082.12H824.041V1083.12H825.041ZM854.162 1083.12H855.162V1082.12H854.162V1083.12ZM854.162 1124.78L854.466 1125.73L855.162 1125.51V1124.78H854.162ZM793.752 1117.63L793.021 1118.31L793.023 1118.31L793.752 1117.63ZM788.244 1061.79L787.362 1061.32L787.361 1061.32L788.244 1061.79ZM803.713 1046.44L804.176 1047.32L804.18 1047.32L803.713 1046.44ZM852.873 1046.14L853.788 1046.55L854.196 1045.62L853.264 1045.22L852.873 1046.14ZM849.005 1054.93L848.615 1055.85L849.523 1056.24L849.921 1055.34L849.005 1054.93ZM801.896 1111.48L801.168 1112.16L801.17 1112.16L801.896 1111.48ZM844.201 1118.39L844.435 1119.36L845.201 1119.18V1118.39H844.201ZM844.201 1092.02H845.201V1091.02H844.201V1092.02ZM825.041 1092.02H824.041V1093.02H825.041V1092.02ZM825.041 1084.12H854.162V1082.12H825.041V1084.12ZM853.162 1083.12V1124.78H855.162V1083.12H853.162ZM853.858 1123.82C849.375 1125.25 844.815 1126.34 840.177 1127.07L840.49 1129.05C845.228 1128.3 849.886 1127.19 854.466 1125.73L853.858 1123.82ZM840.177 1127.07C835.554 1127.8 830.179 1128.17 824.045 1128.17V1130.17C830.254 1130.17 835.738 1129.8 840.49 1129.05L840.177 1127.07ZM824.045 1128.17C811.284 1128.17 801.476 1124.39 794.481 1116.94L793.023 1118.31C800.48 1126.25 810.867 1130.17 824.045 1130.17V1128.17ZM794.482 1116.95C787.477 1109.45 783.912 1098.9 783.912 1085.17H781.912C781.912 1099.25 785.573 1110.34 793.021 1118.31L794.482 1116.95ZM783.912 1085.17C783.912 1076.4 785.661 1068.77 789.127 1062.26L787.361 1061.32C783.717 1068.17 781.912 1076.13 781.912 1085.17H783.912ZM789.126 1062.26C792.625 1055.72 797.636 1050.75 804.176 1047.32L803.249 1045.55C796.351 1049.16 791.05 1054.42 787.362 1061.32L789.126 1062.26ZM804.18 1047.32C810.73 1043.86 818.435 1042.11 827.326 1042.11V1040.11C818.17 1040.11 810.132 1041.91 803.245 1045.55L804.18 1047.32ZM827.326 1042.11C836.341 1042.11 844.722 1043.76 852.481 1047.06L853.264 1045.22C845.242 1041.81 836.592 1040.11 827.326 1040.11V1042.11ZM851.957 1045.74L848.09 1054.53L849.921 1055.34L853.788 1046.55L851.957 1045.74ZM849.396 1054.01C841.559 1050.69 833.985 1049.01 826.681 1049.01V1051.01C833.674 1051.01 840.983 1052.62 848.615 1055.85L849.396 1054.01ZM826.681 1049.01C816.042 1049.01 807.609 1052.19 801.52 1058.64L802.975 1060.01C808.605 1054.05 816.461 1051.01 826.681 1051.01V1049.01ZM801.52 1058.64C795.439 1065.09 792.459 1073.97 792.459 1085.17H794.459C794.459 1074.33 797.337 1065.99 802.975 1060.01L801.52 1058.64ZM792.459 1085.17C792.459 1096.88 795.308 1105.94 801.168 1112.16L802.624 1110.79C797.234 1105.06 794.459 1096.58 794.459 1085.17H792.459ZM801.17 1112.16C807.079 1118.4 815.68 1121.44 826.798 1121.44V1119.44C816.041 1119.44 808.041 1116.51 802.622 1110.79L801.17 1112.16ZM826.798 1121.44C832.813 1121.44 838.693 1120.75 844.435 1119.36L843.966 1117.42C838.38 1118.77 832.658 1119.44 826.798 1119.44V1121.44ZM845.201 1118.39V1092.02H843.201V1118.39H845.201ZM844.201 1091.02H825.041V1093.02H844.201V1091.02ZM826.041 1092.02V1083.12H824.041V1092.02H826.041ZM1003.11 1059.45L1002.36 1058.79L1002.36 1058.79L1003.11 1059.45ZM1002.82 1111.18L1002.06 1111.83L1002.06 1111.84L1002.82 1111.18ZM1045.77 1117.1H1046.77V1115.78L1045.5 1116.14L1045.77 1117.1ZM1045.77 1125.83L1046.12 1126.77L1046.77 1126.53V1125.83H1045.77ZM994.559 1117.69L993.813 1118.35L993.815 1118.36L994.559 1117.69ZM989.227 1061.85L988.333 1061.4L988.331 1061.4L989.227 1061.85ZM1003.52 1046.5L1003.03 1045.63L1003.02 1045.63L1003.52 1046.5ZM1049.11 1046.03L1050.01 1046.47L1050.45 1045.57L1049.55 1045.13L1049.11 1046.03ZM1044.89 1054.58L1044.47 1055.49L1045.35 1055.9L1045.79 1055.02L1044.89 1054.58ZM1025.44 1049.01C1015.78 1049.01 1008.04 1052.25 1002.36 1058.79L1003.87 1060.1C1009.12 1054.06 1016.27 1051.01 1025.44 1051.01V1049.01ZM1002.36 1058.79C996.727 1065.27 993.97 1074.11 993.97 1085.17H995.97C995.97 1074.43 998.642 1066.12 1003.87 1060.1L1002.36 1058.79ZM993.97 1085.17C993.97 1096.52 996.621 1105.46 1002.06 1111.83L1003.58 1110.53C998.553 1104.64 995.97 1096.23 995.97 1085.17H993.97ZM1002.06 1111.84C1007.57 1118.2 1015.37 1121.32 1025.32 1121.32V1119.32C1015.82 1119.32 1008.62 1116.36 1003.58 1110.53L1002.06 1111.84ZM1025.32 1121.32C1031.41 1121.32 1038.32 1120.23 1046.04 1118.06L1045.5 1116.14C1037.9 1118.27 1031.18 1119.32 1025.32 1119.32V1121.32ZM1044.77 1117.1V1125.83H1046.77V1117.1H1044.77ZM1045.42 1124.9C1039.63 1127.07 1032.43 1128.17 1023.8 1128.17V1130.17C1032.59 1130.17 1040.04 1129.05 1046.12 1126.77L1045.42 1124.9ZM1023.8 1128.17C1011.39 1128.17 1001.95 1124.42 995.303 1117.02L993.815 1118.36C1000.92 1126.27 1010.97 1130.17 1023.8 1130.17V1128.17ZM995.305 1117.02C988.686 1109.61 985.305 1099 985.305 1085.05H983.305C983.305 1099.31 986.761 1110.46 993.813 1118.35L995.305 1117.02ZM985.305 1085.05C985.305 1076.35 986.923 1068.77 990.124 1062.29L988.331 1061.4C984.97 1068.21 983.305 1076.1 983.305 1085.05H985.305ZM990.122 1062.29C993.358 1055.82 997.99 1050.85 1004.03 1047.36L1003.02 1045.63C996.637 1049.33 991.738 1054.59 988.333 1061.4L990.122 1062.29ZM1004.02 1047.36C1010.1 1043.87 1017.26 1042.11 1025.56 1042.11V1040.11C1016.97 1040.11 1009.45 1041.93 1003.03 1045.63L1004.02 1047.36ZM1025.56 1042.11C1034.42 1042.11 1042.11 1043.72 1048.67 1046.93L1049.55 1045.13C1042.67 1041.77 1034.66 1040.11 1025.56 1040.11V1042.11ZM1048.21 1045.59L1043.99 1054.14L1045.79 1055.02L1050.01 1046.47L1048.21 1045.59ZM1045.32 1053.68C1038.71 1050.57 1032.08 1049.01 1025.44 1049.01V1051.01C1031.76 1051.01 1038.1 1052.5 1044.47 1055.49L1045.32 1053.68ZM1169.79 1117.39L1169.04 1116.73L1169.04 1116.73L1169.79 1117.39ZM1111.66 1117.63L1110.91 1118.29L1110.92 1118.3L1111.66 1117.63ZM1111.72 1052.53L1112.47 1053.2L1112.47 1053.2L1111.72 1052.53ZM1119.34 1111.48L1118.56 1112.11L1118.57 1112.12L1119.34 1111.48ZM1162.4 1111.48L1163.18 1112.11L1162.4 1111.48ZM1162.4 1058.86L1161.63 1059.49L1161.63 1059.49L1162.4 1058.86ZM1119.34 1058.92L1118.57 1058.28L1118.57 1058.28L1119.34 1058.92ZM1179.22 1085.05C1179.22 1098.59 1175.79 1109.11 1169.04 1116.73L1170.54 1118.06C1177.7 1109.97 1181.22 1098.93 1181.22 1085.05H1179.22ZM1169.04 1116.73C1162.35 1124.33 1153.01 1128.17 1140.9 1128.17V1130.17C1153.48 1130.17 1163.4 1126.16 1170.54 1118.06L1169.04 1116.73ZM1140.9 1128.17C1128.5 1128.17 1119.05 1124.4 1112.41 1116.96L1110.92 1118.3C1118.02 1126.25 1128.07 1130.17 1140.9 1130.17V1128.17ZM1112.41 1116.97C1105.79 1109.47 1102.41 1098.84 1102.41 1084.93H1100.41C1100.41 1099.15 1103.87 1110.32 1110.91 1118.29L1112.41 1116.97ZM1102.41 1084.93C1102.41 1071.15 1105.81 1060.62 1112.47 1053.2L1110.98 1051.86C1103.89 1059.76 1100.41 1070.83 1100.41 1084.93H1102.41ZM1112.47 1053.2C1119.11 1045.76 1128.58 1041.99 1141.02 1041.99V1039.99C1128.15 1039.99 1118.08 1043.91 1110.98 1051.87L1112.47 1053.2ZM1141.02 1041.99C1153.09 1041.99 1162.41 1045.81 1169.1 1053.37L1170.59 1052.04C1163.46 1043.98 1153.55 1039.99 1141.02 1039.99V1041.99ZM1169.1 1053.37C1175.8 1060.95 1179.22 1071.47 1179.22 1085.05H1181.22C1181.22 1071.14 1177.72 1060.09 1170.59 1052.04L1169.1 1053.37ZM1110.96 1085.05C1110.96 1096.77 1113.44 1105.85 1118.56 1112.11L1120.11 1110.84C1115.39 1105.08 1112.96 1096.53 1112.96 1085.05H1110.96ZM1118.57 1112.12C1123.76 1118.37 1131.26 1121.44 1140.9 1121.44V1119.44C1131.71 1119.44 1124.84 1116.54 1120.11 1110.84L1118.57 1112.12ZM1140.9 1121.44C1150.62 1121.44 1158.1 1118.37 1163.18 1112.11L1161.63 1110.85C1157.02 1116.53 1150.17 1119.44 1140.9 1119.44V1121.44ZM1163.18 1112.11C1168.23 1105.88 1170.67 1096.81 1170.67 1085.05H1168.67C1168.67 1096.57 1166.27 1105.12 1161.63 1110.85L1163.18 1112.11ZM1170.67 1085.05C1170.67 1073.41 1168.23 1064.41 1163.18 1058.23L1161.63 1059.49C1166.27 1065.18 1168.67 1073.65 1168.67 1085.05H1170.67ZM1163.18 1058.23C1158.15 1051.97 1150.7 1048.89 1141.02 1048.89V1050.89C1150.25 1050.89 1157.05 1053.8 1161.63 1059.49L1163.18 1058.23ZM1141.02 1048.89C1131.3 1048.89 1123.76 1051.99 1118.57 1058.28L1120.11 1059.55C1124.84 1053.82 1131.75 1050.89 1141.02 1050.89V1048.89ZM1118.57 1058.28C1113.44 1064.51 1110.96 1073.48 1110.96 1085.05H1112.96C1112.96 1073.73 1115.39 1065.28 1120.11 1059.55L1118.57 1058.28ZM1278.69 1128L1277.75 1128.36L1278 1129H1278.69V1128ZM1249.62 1052.06L1250.56 1051.71L1250.31 1051.06H1249.62V1052.06ZM1249.16 1052.06V1051.06H1248.06L1248.16 1052.15L1249.16 1052.06ZM1249.98 1128V1129H1250.98V1128H1249.98ZM1240.78 1128H1239.78V1129H1240.78V1128ZM1240.78 1042.34V1041.34H1239.78V1042.34H1240.78ZM1255.78 1042.34L1256.71 1041.98L1256.46 1041.34H1255.78V1042.34ZM1282.91 1113L1281.97 1113.36L1282.22 1114H1282.91V1113ZM1283.38 1113V1114H1284.06L1284.31 1113.36L1283.38 1113ZM1310.74 1042.34V1041.34H1310.05L1309.81 1041.97L1310.74 1042.34ZM1325.62 1042.34H1326.62V1041.34H1325.62V1042.34ZM1325.62 1128V1129H1326.62V1128H1325.62ZM1315.66 1128H1314.66V1129H1315.66V1128ZM1316.48 1052.18L1317.48 1052.25L1317.56 1051.18H1316.48V1052.18ZM1316.01 1052.18V1051.18H1315.33L1315.08 1051.82L1316.01 1052.18ZM1286.71 1128V1129H1287.4L1287.65 1128.36L1286.71 1128ZM1279.62 1127.64L1250.56 1051.71L1248.69 1052.42L1277.75 1128.36L1279.62 1127.64ZM1249.62 1051.06H1249.16V1053.06H1249.62V1051.06ZM1248.16 1052.15C1248.7 1058.13 1248.98 1065.25 1248.98 1073.51H1250.98C1250.98 1065.21 1250.7 1058.03 1250.15 1051.97L1248.16 1052.15ZM1248.98 1073.51V1128H1250.98V1073.51H1248.98ZM1249.98 1127H1240.78V1129H1249.98V1127ZM1241.78 1128V1042.34H1239.78V1128H1241.78ZM1240.78 1043.34H1255.78V1041.34H1240.78V1043.34ZM1254.84 1042.69L1281.97 1113.36L1283.84 1112.64L1256.71 1041.98L1254.84 1042.69ZM1282.91 1114H1283.38V1112H1282.91V1114ZM1284.31 1113.36L1311.67 1042.7L1309.81 1041.97L1282.44 1112.64L1284.31 1113.36ZM1310.74 1043.34H1325.62V1041.34H1310.74V1043.34ZM1324.62 1042.34V1128H1326.62V1042.34H1324.62ZM1325.62 1127H1315.66V1129H1325.62V1127ZM1316.66 1128V1072.8H1314.66V1128H1316.66ZM1316.66 1072.8C1316.66 1066.5 1316.93 1059.65 1317.48 1052.25L1315.48 1052.11C1314.93 1059.55 1314.66 1066.45 1314.66 1072.8H1316.66ZM1316.48 1051.18H1316.01V1053.18H1316.48V1051.18ZM1315.08 1051.82L1285.78 1127.64L1287.65 1128.36L1316.94 1052.54L1315.08 1051.82ZM1286.71 1127H1278.69V1129H1286.71V1127ZM1435.99 1087.34L1436.6 1088.12L1436.61 1088.12L1435.99 1087.34ZM1400.54 1094.31V1093.31H1399.54V1094.31H1400.54ZM1400.54 1128V1129H1401.54V1128H1400.54ZM1390.58 1128H1389.58V1129H1390.58V1128ZM1390.58 1042.34V1041.34H1389.58V1042.34H1390.58ZM1400.54 1085.75H1399.54V1086.75H1400.54V1085.75ZM1400.54 1050.95V1049.95H1399.54V1050.95H1400.54ZM1443.89 1067.3C1443.89 1075.71 1441.03 1082.08 1435.37 1086.55L1436.61 1088.12C1442.82 1083.21 1445.89 1076.22 1445.89 1067.3H1443.89ZM1435.37 1086.55C1429.71 1091.01 1421.51 1093.31 1410.61 1093.31V1095.31C1421.75 1095.31 1430.46 1092.96 1436.6 1088.12L1435.37 1086.55ZM1410.61 1093.31H1400.54V1095.31H1410.61V1093.31ZM1399.54 1094.31V1128H1401.54V1094.31H1399.54ZM1400.54 1127H1390.58V1129H1400.54V1127ZM1391.58 1128V1042.34H1389.58V1128H1391.58ZM1390.58 1043.34H1412.78V1041.34H1390.58V1043.34ZM1412.78 1043.34C1423.38 1043.34 1431.15 1045.4 1436.25 1049.37C1441.3 1053.29 1443.89 1059.21 1443.89 1067.3H1445.89C1445.89 1058.75 1443.13 1052.18 1437.48 1047.79C1431.88 1043.43 1423.59 1041.34 1412.78 1041.34V1043.34ZM1400.54 1086.75H1409.5V1084.75H1400.54V1086.75ZM1409.5 1086.75C1418.39 1086.75 1425.04 1085.33 1429.25 1082.29L1428.08 1080.67C1424.39 1083.33 1418.27 1084.75 1409.5 1084.75V1086.75ZM1429.25 1082.29C1433.53 1079.19 1435.58 1074.27 1435.58 1067.77H1433.58C1433.58 1073.84 1431.69 1078.06 1428.08 1080.67L1429.25 1082.29ZM1435.58 1067.77C1435.58 1061.86 1433.63 1057.31 1429.61 1054.31L1428.41 1055.91C1431.82 1058.45 1433.58 1062.34 1433.58 1067.77H1435.58ZM1429.61 1054.31C1425.64 1051.34 1419.6 1049.95 1411.67 1049.95V1051.95C1419.44 1051.95 1424.96 1053.33 1428.41 1055.91L1429.61 1054.31ZM1411.67 1049.95H1400.54V1051.95H1411.67V1049.95ZM1399.54 1050.95V1085.75H1401.54V1050.95H1399.54ZM1558.13 1128L1557.2 1128.36L1557.45 1129H1558.13V1128ZM1547.46 1100.75L1548.4 1100.39L1548.15 1099.75H1547.46V1100.75ZM1513.13 1100.75V1099.75H1512.44L1512.2 1100.39L1513.13 1100.75ZM1502.58 1128V1129H1503.27L1503.51 1128.36L1502.58 1128ZM1492.5 1128L1491.57 1127.63L1491.03 1129H1492.5V1128ZM1526.37 1041.98V1040.98H1525.69L1525.44 1041.62L1526.37 1041.98ZM1534.75 1041.98L1535.68 1041.62L1535.43 1040.98H1534.75V1041.98ZM1568.44 1128V1129H1569.91L1569.37 1127.64L1568.44 1128ZM1544.36 1091.79V1092.79H1545.8L1545.29 1091.44L1544.36 1091.79ZM1534.4 1065.25L1535.33 1064.89L1535.33 1064.89L1534.4 1065.25ZM1530.41 1052.88L1531.38 1052.61L1529.44 1052.66L1530.41 1052.88ZM1526.72 1065.25L1527.66 1065.6L1527.66 1065.59L1527.66 1065.58L1526.72 1065.25ZM1516.64 1091.79L1515.71 1091.43L1515.19 1092.79H1516.64V1091.79ZM1559.06 1127.64L1548.4 1100.39L1546.53 1101.12L1557.2 1128.36L1559.06 1127.64ZM1547.46 1099.75H1513.13V1101.75H1547.46V1099.75ZM1512.2 1100.39L1501.65 1127.64L1503.51 1128.36L1514.06 1101.11L1512.2 1100.39ZM1502.58 1127H1492.5V1129H1502.58V1127ZM1493.43 1128.37L1527.3 1042.35L1525.44 1041.62L1491.57 1127.63L1493.43 1128.37ZM1526.37 1042.98H1534.75V1040.98H1526.37V1042.98ZM1533.82 1042.35L1567.51 1128.36L1569.37 1127.64L1535.68 1041.62L1533.82 1042.35ZM1568.44 1127H1558.13V1129H1568.44V1127ZM1545.29 1091.44L1535.33 1064.89L1533.46 1065.6L1543.42 1092.14L1545.29 1091.44ZM1535.33 1064.89C1534.06 1061.57 1532.74 1057.48 1531.38 1052.61L1529.45 1053.15C1530.82 1058.05 1532.16 1062.21 1533.46 1065.6L1535.33 1064.89ZM1529.44 1052.66C1528.59 1056.36 1527.37 1060.45 1525.78 1064.91L1527.66 1065.58C1529.28 1061.06 1530.52 1056.9 1531.39 1053.11L1529.44 1052.66ZM1525.79 1064.89L1515.71 1091.43L1517.58 1092.14L1527.66 1065.6L1525.79 1064.89ZM1516.64 1092.79H1544.36V1090.79H1516.64V1092.79ZM1688.53 1128V1129H1689.53V1128H1688.53ZM1677.16 1128L1676.33 1128.55L1676.62 1129H1677.16V1128ZM1630.35 1056.11L1631.19 1055.56L1630.89 1055.11H1630.35V1056.11ZM1629.88 1056.11V1055.11H1628.8L1628.88 1056.18L1629.88 1056.11ZM1630.82 1128V1129H1631.82V1128H1630.82ZM1621.62 1128H1620.62V1129H1621.62V1128ZM1621.62 1042.34V1041.34H1620.62V1042.34H1621.62ZM1632.87 1042.34L1633.71 1041.79L1633.41 1041.34H1632.87V1042.34ZM1679.57 1113.94L1678.73 1114.48L1679.03 1114.94H1679.57V1113.94ZM1680.04 1113.94V1114.94H1681.11L1681.03 1113.86L1680.04 1113.94ZM1679.51 1103.8L1678.51 1103.85L1678.51 1103.85L1679.51 1103.8ZM1679.22 1091.5L1680.22 1091.53L1680.22 1091.51V1091.5H1679.22ZM1679.22 1042.34V1041.34H1678.22V1042.34H1679.22ZM1688.53 1042.34H1689.53V1041.34H1688.53V1042.34ZM1688.53 1127H1677.16V1129H1688.53V1127ZM1678 1127.45L1631.19 1055.56L1629.51 1056.65L1676.33 1128.55L1678 1127.45ZM1630.35 1055.11H1629.88V1057.11H1630.35V1055.11ZM1628.88 1056.18C1629.51 1064.6 1629.82 1072.31 1629.82 1079.31H1631.82C1631.82 1072.25 1631.5 1064.49 1630.88 1056.03L1628.88 1056.18ZM1629.82 1079.31V1128H1631.82V1079.31H1629.82ZM1630.82 1127H1621.62V1129H1630.82V1127ZM1622.62 1128V1042.34H1620.62V1128H1622.62ZM1621.62 1043.34H1632.87V1041.34H1621.62V1043.34ZM1632.03 1042.88L1678.73 1114.48L1680.4 1113.39L1633.71 1041.79L1632.03 1042.88ZM1679.57 1114.94H1680.04V1112.94H1679.57V1114.94ZM1681.03 1113.86C1680.96 1112.83 1680.78 1109.46 1680.51 1103.75L1678.51 1103.85C1678.78 1109.54 1678.96 1112.94 1679.04 1114.01L1681.03 1113.86ZM1680.51 1103.75C1680.23 1098.01 1680.14 1093.95 1680.22 1091.53L1678.22 1091.46C1678.14 1093.97 1678.24 1098.11 1678.51 1103.85L1680.51 1103.75ZM1680.22 1091.5V1042.34H1678.22V1091.5H1680.22ZM1679.22 1043.34H1688.53V1041.34H1679.22V1043.34ZM1687.53 1042.34V1128H1689.53V1042.34H1687.53ZM1775.28 1085.17L1774.4 1085.64L1775.28 1087.3L1776.17 1085.64L1775.28 1085.17ZM1798.14 1042.34V1041.34H1797.54L1797.25 1041.87L1798.14 1042.34ZM1808.92 1042.34L1809.79 1042.81L1810.6 1041.34H1808.92V1042.34ZM1780.32 1094.78L1779.44 1094.3L1779.32 1094.52V1094.78H1780.32ZM1780.32 1128V1129H1781.32V1128H1780.32ZM1770.24 1128H1769.24V1129H1770.24V1128ZM1770.24 1095.25H1771.24V1094.99L1771.12 1094.77L1770.24 1095.25ZM1741.71 1042.34V1041.34H1740.03L1740.83 1042.81L1741.71 1042.34ZM1752.61 1042.34L1753.49 1041.87L1753.21 1041.34H1752.61V1042.34ZM1776.17 1085.64L1799.02 1042.81L1797.25 1041.87L1774.4 1084.7L1776.17 1085.64ZM1798.14 1043.34H1808.92V1041.34H1798.14V1043.34ZM1808.04 1041.86L1779.44 1094.3L1781.2 1095.26L1809.79 1042.81L1808.04 1041.86ZM1779.32 1094.78V1128H1781.32V1094.78H1779.32ZM1780.32 1127H1770.24V1129H1780.32V1127ZM1771.24 1128V1095.25H1769.24V1128H1771.24ZM1771.12 1094.77L1742.59 1041.86L1740.83 1042.81L1769.36 1095.72L1771.12 1094.77ZM1741.71 1043.34H1752.61V1041.34H1741.71V1043.34ZM1751.72 1042.8L1774.4 1085.64L1776.17 1084.7L1753.49 1041.87L1751.72 1042.8Z" fill="black"/>
<rect x="1122" y="280" width="120" height="120" fill="#403331" fill-opacity="0.2"/>
<rect x="1268" y="280" width="120" height="120" fill="#403331" fill-opacity="0.2"/>
<rect x="1122" y="424" width="120" height="120" fill="#403331" fill-opacity="0.2"/>
<rect x="1268" y="424" width="120" height="120" fill="#403331" fill-opacity="0.2"/>
<rect x="413" y="390" width="70" height="70" fill="#403331" fill-opacity="0.2"/>
<rect x="498.167" y="390" width="70" height="70" fill="#403331" fill-opacity="0.2"/>
<rect x="413" y="474" width="70" height="70" fill="#403331" fill-opacity="0.2"/>
<rect x="498.167" y="474" width="70" height="70" fill="#403331" fill-opacity="0.2"/>
</svg>
